<svg xmlns="http://www.w3.org/2000/svg" enable-background="new 0 0 3000 3000" viewBox="0 0 3000 3000"><linearGradient id="a" x1="1945.338" x2="313.393" y1="860.634" y2="6673.98" gradientUnits="userSpaceOnUse"><stop offset=".008" stop-color="#595bd4" class="stopColor182b9b svgShape"/><stop offset="1" stop-color="#03042b" class="stopColor21032b svgShape"/></linearGradient><path fill="url(#a)" d="M2739.31 2607.54c20.04-82.52 35.52-170.08 46.6-262.62 74.15-618.95-267.03-1503.19-950.17-1358.87-459.7 97.13-391.23 634.08-1182.66 935.4-339.13 129.11-460.38 401.37-422.3 686.09h2508.53z"/><path fill="#03042b" d="M2795.69 2147.67c-5.35 36.45-13.55 72.32-26.24 106.66-25.66 69.49-78.6 136.8-158.92 137.48-88.39.75-170.11-64.8-227.83-125.47-28.23-29.67-52.65-62.1-73.79-97.14-17.89-29.65-30.93-62.18-43.72-94.26-28.86-72.33-53.38-150.2-99.13-214.13-18.18-25.41-41.46-49.82-72.14-59.21-39.01-11.94-78.15 6.96-112.79 23.51-91.03 43.49-170.51 110.67-268.6 139.02-50.67 14.65-103.43 16.95-155.59 10.21-40-5.17-79.86-16.1-114.41-37.42-66.51-41.03-96.97-114.1-112.02-187.76-14.66 64.49-25.88 129.73-41.87 193.95-16.71 67.12-37.19 134.59-70.69 195.44-29.01 52.69-69.89 100.36-128.28 120.25-77.6 26.43-163.01 17.47-239.74-7.53-41.22-13.43-81.16-31.67-118.53-54.12-17.77 39.59-44.41 75.09-75.18 105.87-44.85 44.86-98.25 80.81-153.89 110.89-67.35 36.41-141.44 59.77-217.94 65.41-19.88 1.46-39.77 1.71-59.61.91-1.71 41.86.29 84.42 6.02 127.3h2508.52c20.04-82.52 35.52-170.08 46.6-262.62 7.59-63.42 10.82-129.63 9.77-197.24z" opacity=".35" class="color21032b svgShape"/><linearGradient id="b" x1="1231.314" x2="-1357.207" y1="-78.003" y2="9142.876" gradientUnits="userSpaceOnUse"><stop offset=".008" stop-color="#595bd4" class="stopColor182b9b svgShape"/><stop offset="1" stop-color="#03042b" class="stopColor21032b svgShape"/></linearGradient><path fill="url(#b)" d="M1519.95 671.87C1483.11-1.15-572.63 1910.06 527.7 1808.89c372.7-34.27 1029.08-464 992.25-1137.02z"/><path fill="#53d86a" d="M355.8 1336.51c54.39 11.06 109.56 16.56 164.86 20.64 125.36 9.24 252.16 8.2 376.49-11.7 62.05-9.93 123.43-24.61 182.78-45.36 59.55-20.82 116.73-47.67 171.58-78.76 55.45-31.43 110.73-66.12 160.61-105.94 13.48-10.77 27.18-21.32 40.32-32.52 10.64-26.58 20.2-53.78 28.56-81.6-31.51-3.74-64.64 3.51-96.19.78-16.14-1.4-33.24-5.66-48.04-12.41-7.34-3.35-10.69-7.91-12.22-15.75-2.27-11.7-5.54-23.14-7.83-34.81-2.74-13.96-2.41-28.39-5.62-42.27-8.49-36.63-49.89-48.85-82.98-49.66-33.47-.82-70.8 7.09-101.84-9.12-8.09-4.22-16.66-9.59-19.9-18.6-2.86-7.99-1.31-17.04-1.19-25.32.49-34.26-11.93-64.75-36.5-88.52-12.26-11.87-25.82-22.9-39.91-33.22C780.59 832.02 498.61 1097.69 337 1332.48c6.25 1.41 12.52 2.76 18.8 4.03z" enable-background="new" opacity=".1" class="colorf4f2f3 svgShape"/><path fill="#ffffff" d="M2661.15 1677.27c-7.07 2.38-9.01 4.32-11.4 11.4-2.39-7.08-4.32-9.01-11.4-11.4 7.07-2.39 9.01-4.32 11.4-11.4 2.39 7.08 4.32 9.01 11.4 11.4zM2565.27 1909.78c-7.07 2.39-9.01 4.32-11.4 11.4-2.39-7.07-4.32-9.01-11.4-11.4 7.08-2.39 9.02-4.32 11.4-11.4 2.39 7.07 4.33 9.01 11.4 11.4zM1207.11 763.31c-9.65 3.26-12.3 5.9-15.55 15.56-3.26-9.66-5.9-12.3-15.57-15.56 9.66-3.26 12.3-5.9 15.57-15.55 3.25 9.65 5.9 12.29 15.55 15.55zM1197.86 2273.95c-9.66 3.26-12.3 5.9-15.56 15.55-3.26-9.66-5.9-12.3-15.56-15.55 9.66-3.26 12.3-5.9 15.56-15.56 3.26 9.65 5.91 12.29 15.56 15.56zM469.15 1618.71c-9.66 3.26-12.3 5.91-15.56 15.56-3.26-9.65-5.9-12.3-15.56-15.56 9.66-3.26 12.3-5.9 15.56-15.55 3.25 9.65 5.9 12.29 15.56 15.55z" class="colorfff svgShape"/><path fill="#ffffff" d="M1216.95 1768.31a8.22 8.22 0 0 0 8.22-8.22c0-4.57-3.68-8.25-8.22-8.25-4.54 0-8.22 3.68-8.22 8.25a8.22 8.22 0 0 0 8.22 8.22zM1216.95 1810.64a8.22 8.22 0 0 0 8.22-8.22c0-4.57-3.68-8.25-8.22-8.25-4.54 0-8.22 3.68-8.22 8.25a8.22 8.22 0 0 0 8.22 8.22z" opacity=".8" class="colorfff svgShape"/><path fill="#ffffff" d="M1216.95 1852.97c4.54 0 8.22-3.69 8.22-8.22 0-4.57-3.68-8.25-8.22-8.25-4.54 0-8.22 3.68-8.22 8.25a8.22 8.22 0 0 0 8.22 8.22z" opacity=".6" class="colorfff svgShape"/><path fill="#ffffff" d="M1216.95 1895.3a8.22 8.22 0 0 0 8.22-8.22c0-4.57-3.68-8.25-8.22-8.25-4.54 0-8.22 3.68-8.22 8.25a8.22 8.22 0 0 0 8.22 8.22z" opacity=".3" class="colorfff svgShape"/><path fill="#ffffff" d="M585.25 2212.71a8.22 8.22 0 0 0 8.22-8.22c0-4.57-3.68-8.25-8.22-8.25-4.54 0-8.22 3.68-8.22 8.25 0 4.53 3.68 8.22 8.22 8.22zM585.25 2255.03a8.22 8.22 0 0 0 8.22-8.22c0-4.57-3.68-8.25-8.22-8.25-4.54 0-8.22 3.68-8.22 8.25a8.22 8.22 0 0 0 8.22 8.22z" opacity=".8" class="colorfff svgShape"/><path fill="#ffffff" d="M585.25 2297.37c4.54 0 8.22-3.69 8.22-8.22 0-4.57-3.68-8.25-8.22-8.25-4.54 0-8.22 3.68-8.22 8.25 0 4.53 3.68 8.22 8.22 8.22z" opacity=".6" class="colorfff svgShape"/><path fill="#ffffff" d="M585.25 2339.7a8.22 8.22 0 0 0 8.22-8.22c0-4.57-3.68-8.25-8.22-8.25-4.54 0-8.22 3.68-8.22 8.25 0 4.53 3.68 8.22 8.22 8.22z" opacity=".3" class="colorfff svgShape"/><path fill="#ffffff" d="M2535.26 2152.78a8.22 8.22 0 0 0 8.22-8.22c0-4.57-3.68-8.25-8.22-8.25-4.54 0-8.22 3.68-8.22 8.25a8.22 8.22 0 0 0 8.22 8.22zM2535.26 2195.11a8.22 8.22 0 0 0 8.22-8.22c0-4.57-3.68-8.25-8.22-8.25-4.54 0-8.22 3.68-8.22 8.25a8.22 8.22 0 0 0 8.22 8.22z" opacity=".8" class="colorfff svgShape"/><path fill="#ffffff" d="M2535.26 2237.44c4.54 0 8.22-3.69 8.22-8.22 0-4.57-3.68-8.26-8.22-8.26-4.54 0-8.22 3.69-8.22 8.26 0 4.53 3.68 8.22 8.22 8.22z" opacity=".6" class="colorfff svgShape"/><path fill="#ffffff" d="M2535.26 2279.77a8.22 8.22 0 0 0 8.22-8.22c0-4.57-3.68-8.25-8.22-8.25-4.54 0-8.22 3.68-8.22 8.25 0 4.53 3.68 8.22 8.22 8.22z" opacity=".3" class="colorfff svgShape"/><g><linearGradient id="c" x1="1149.242" x2="2827.18" y1="133.374" y2="3144.373" gradientUnits="userSpaceOnUse"><stop offset=".02" stop-color="#d1d1ee" class="stopColord1e1ee svgShape"/><stop offset=".363" stop-color="#167ffc" class="stopColor50a7e2 svgShape"/><stop offset="1" stop-color="#595bd4" class="stopColor182b9b svgShape"/></linearGradient><path fill="url(#c)" fill-rule="evenodd" d="M2432.36 304.97H1368.64c-23.96 0-43.38 19.42-43.38 43.38V2614.6c0 23.96 19.42 43.38 43.38 43.38h1063.72c23.96 0 43.38-19.42 43.38-43.38V348.35c0-23.96-19.42-43.38-43.38-43.38z" clip-rule="evenodd"/><path fill="#ffffff" d="M2192.77 357.23c-25.13-29.87 172.23-45.16 208.2-10.72 35.98 34.45-167.63 58.95-208.2 10.72zM2404.8 516.45c-10.29-25.48-22.96-133.96 16.07-111.76s.01 151.56-16.07 111.76z" opacity=".35" class="colorfff svgShape"/><path fill="#131468" fill-rule="evenodd" d="M2475.73 1445.37v1169.27c0 23.9-19.39 43.36-43.36 43.36H1368.63c-23.97 0-43.36-19.46-43.36-43.36v-366.39c715.13-115.07 1022.05-471.8 1150.46-802.88z" clip-rule="evenodd" opacity=".1" class="color132368 svgShape"/><path fill="#ffffff" d="M1517.08 496.33h24.47v60.71h27.07v17.22h-51.53v-77.93zM1592.11 570.86c-6.3-3.47-11.21-8.29-14.72-14.44s-5.27-13.16-5.27-21.01c0-7.93 1.76-14.99 5.27-21.18 3.51-6.19 8.42-11 14.72-14.44 6.3-3.44 13.54-5.16 21.69-5.16 8.15 0 15.38 1.72 21.69 5.16 6.3 3.44 11.21 8.23 14.72 14.38 3.51 6.16 5.27 13.23 5.27 21.24 0 7.85-1.76 14.85-5.27 21.01-3.51 6.16-8.44 10.97-14.78 14.44-6.34 3.47-13.55 5.21-21.63 5.21-8.15 0-15.38-1.74-21.69-5.21zm33.42-20.95c3.06-3.7 4.59-8.57 4.59-14.61 0-4-.7-7.57-2.1-10.71-1.4-3.13-3.34-5.59-5.83-7.36-2.49-1.77-5.32-2.66-8.49-2.66-3.1 0-5.89.89-8.38 2.66-2.49 1.77-4.42 4.23-5.78 7.36-1.37 3.14-2.04 6.7-2.04 10.71 0 6.04 1.51 10.91 4.54 14.61 3.01 3.7 6.95 5.55 11.78 5.55 4.74 0 8.65-1.85 11.71-5.55zM1681.98 570.58c-6.12-3.66-10.91-8.66-14.38-15.01-3.47-6.34-5.21-13.33-5.21-20.95 0-7.32 1.76-14.05 5.27-20.16 3.51-6.12 8.4-10.95 14.67-14.5 6.27-3.55 13.41-5.33 21.41-5.33 4.38 0 8.63.49 12.74 1.47 4.11.98 7.83 2.38 11.15 4.19l-7.47 17.55c-5.13-2.11-9.93-3.17-14.38-3.17-5.82 0-10.31 1.87-13.48 5.61-3.18 3.74-4.76 8.63-4.76 14.67 0 3.93.72 7.46 2.16 10.59 1.43 3.13 3.45 5.61 6.06 7.42 2.6 1.81 5.57 2.72 8.89 2.72 1.81 0 3.32-.15 4.53-.45V537l19.59-2.27v35.45c-8.53 3.93-17.25 5.89-26.16 5.89-7.64 0-14.51-1.83-20.63-5.49zM1740.99 496.33h26.17v77.92h-26.17v-77.92zM1781.88 496.33h22.76l31.04 42.02v-42.02h20.27v77.92h-22.65l-31.26-40.55v40.55h-20.16v-77.92zM1906.58 496.33h34.43l22.54 77.92h-26.61L1934 559.3h-20.16l-3.28 14.95h-25.48l21.5-77.92zm24.7 49.05-7.36-34.09-7.7 34.09h15.06zM1987.16 570.69c-6.15-3.59-11.02-8.49-14.61-14.73-3.59-6.23-5.38-13.12-5.38-20.67 0-7.7 1.74-14.65 5.21-20.84 3.47-6.19 8.23-11.04 14.27-14.55 6.04-3.51 12.83-5.27 20.39-5.27 4.08 0 8.08.49 12 1.47 3.93.98 7.29 2.38 10.08 4.19l-3.06 17.55c-5.44-2.04-10.34-3.06-14.72-3.06-6.05 0-10.69 1.76-13.93 5.27-3.25 3.51-4.88 8.55-4.88 15.12 0 6.42 1.72 11.42 5.16 15.01 3.44 3.59 8.21 5.38 14.33 5.38 2.34 0 4.53-.23 6.57-.68s4.53-1.28 7.47-2.49l3.17 17.9c-6.57 3.85-13.74 5.78-21.52 5.78-7.53 0-14.39-1.79-20.55-5.38zM2054.1 570.69c-6.15-3.59-11.02-8.49-14.61-14.73-3.59-6.23-5.38-13.12-5.38-20.67 0-7.7 1.74-14.65 5.21-20.84 3.47-6.19 8.23-11.04 14.27-14.55 6.04-3.51 12.83-5.27 20.39-5.27 4.08 0 8.08.49 12 1.47 3.93.98 7.29 2.38 10.08 4.19l-3.06 17.55c-5.44-2.04-10.34-3.06-14.72-3.06-6.05 0-10.69 1.76-13.93 5.27-3.25 3.51-4.88 8.55-4.88 15.12 0 6.42 1.72 11.42 5.16 15.01 3.44 3.59 8.21 5.38 14.33 5.38 2.34 0 4.53-.23 6.57-.68s4.53-1.28 7.47-2.49l3.17 17.9c-6.57 3.85-13.74 5.78-21.52 5.78-7.54 0-14.4-1.79-20.55-5.38zM2106.37 496.33h54.71v17.22h-27.18v14.16h24.8v14.27h-24.8v15.06h27.18v17.22h-54.71v-77.93zM2170.93 570.18l5.66-17.56c7.78 2.8 14.72 4.19 20.84 4.19 3.32 0 5.76-.4 7.3-1.19 1.54-.79 2.32-1.98 2.32-3.57 0-1.06-.42-1.98-1.25-2.77-.84-.79-2.49-1.68-4.98-2.66-2.49-.98-6.23-2.19-11.22-3.62-6.12-1.81-10.87-4.78-14.27-8.89-3.4-4.11-5.1-8.85-5.1-14.22 0-8.3 2.74-14.59 8.21-18.86 5.47-4.27 12.85-6.4 22.15-6.4 4.83 0 9.59.51 14.27 1.53s8.83 2.51 12.46 4.48l-6.12 17.1c-4.23-1.43-7.91-2.47-11.04-3.11-3.13-.64-6.17-.96-9.12-.96-4.99 0-7.48 1.36-7.48 4.08 0 1.36.81 2.51 2.43 3.45 1.62.95 4.96 2.14 10.03 3.57 7.93 2.12 13.93 5.34 18.01 9.69s6.12 9.53 6.12 15.57c0 8.38-2.72 14.82-8.15 19.31-5.44 4.49-13.48 6.74-24.12 6.74-10.64-.01-19.63-1.97-26.95-5.9zM2237.41 570.18l5.66-17.56c7.78 2.8 14.72 4.19 20.84 4.19 3.32 0 5.76-.4 7.3-1.19 1.54-.79 2.32-1.98 2.32-3.57 0-1.06-.42-1.98-1.25-2.77-.84-.79-2.49-1.68-4.98-2.66-2.49-.98-6.23-2.19-11.22-3.62-6.12-1.81-10.87-4.78-14.27-8.89-3.4-4.11-5.1-8.85-5.1-14.22 0-8.3 2.74-14.59 8.21-18.86 5.47-4.27 12.85-6.4 22.15-6.4 4.83 0 9.59.51 14.27 1.53s8.83 2.51 12.46 4.48l-6.12 17.1c-4.23-1.43-7.91-2.47-11.04-3.11-3.13-.64-6.17-.96-9.12-.96-4.99 0-7.48 1.36-7.48 4.08 0 1.36.81 2.51 2.43 3.45 1.62.95 4.96 2.14 10.03 3.57 7.93 2.12 13.93 5.34 18.01 9.69s6.12 9.53 6.12 15.57c0 8.38-2.72 14.82-8.15 19.31-5.44 4.49-13.48 6.74-24.12 6.74-10.64-.01-19.62-1.97-26.95-5.9z" class="colorfff svgShape"/><linearGradient id="d" x1="1640.986" x2="2270.978" y1="589.755" y2="1453.868" gradientUnits="userSpaceOnUse"><stop offset=".02" stop-color="#d1d1ee" class="stopColord1e1ee svgShape"/><stop offset=".363" stop-color="#167ffc" class="stopColor50a7e2 svgShape"/><stop offset="1" stop-color="#595bd4" class="stopColor182b9b svgShape"/></linearGradient><path fill="url(#d)" d="M1897.15 1362.32c0 .09-.09.09-.09.09-.09 0-.09 0-.18-.09-297.72-155.49-281.78-539.38-281.78-539.38 174.21-21.59 275.6-125.13 281.78-131.58 0-.09 0-.09.18-.18.09.09.09.09.09.18 6.18 6.45 107.48 109.99 281.69 131.58 0 0 16.03 383.89-281.69 539.38z"/><linearGradient id="e" x1="1481.996" x2="2311.813" y1="193.386" y2="1658.19" gradientUnits="userSpaceOnUse"><stop offset=".02" stop-color="#d1d1ee" class="stopColord1e1ee svgShape"/><stop offset=".363" stop-color="#167ffc" class="stopColor50a7e2 svgShape"/><stop offset="1" stop-color="#595bd4" class="stopColor182b9b svgShape"/></linearGradient><path fill="url(#e)" d="M1897.01 1342.08c-243.6-133.57-262.95-433.35-264.06-503.53 139.92-21.55 231.08-92.64 264.06-122.48 32.98 29.84 124.13 100.94 263.97 122.48-1.08 70.15-20.35 369.94-263.97 503.53z"/><path fill="#ffffff" d="M1661.27 865.66c-18.73 35.89-.65 111.9 15.04 93.74 15.69-18.16-5.13-112.73-15.04-93.74zM1676.69 856.87c22.7 10.75 62.71-8.58 51.08-17.87-11.63-9.28-63.08 12.19-51.08 17.87z" opacity=".3" class="colorfff svgShape"/><path fill="#d1d1ee" d="M1849.3 962.85v-37.17c0-24.34 19.8-44.14 44.14-44.14s44.15 19.8 44.15 44.14v37.17h29.5v-37.17c0-40.61-33.04-73.64-73.65-73.64-40.61 0-73.64 33.04-73.64 73.64v37.17h29.5z" class="colord1e1ee svgShape"/><linearGradient id="f" x1="1820.69" x2="1998.621" y1="889.608" y2="1216.422" gradientUnits="userSpaceOnUse"><stop offset=".02" stop-color="#d1d1ee" class="stopColord1e1ee svgShape"/><stop offset=".582" stop-color="#167ffc" class="stopColor50a7e2 svgShape"/><stop offset="1" stop-color="#595bd4" class="stopColor182b9b svgShape"/></linearGradient><path fill="url(#f)" d="M1980.54 942.91h-56.37c-.42 0-.74-.11-1.06-.21h-115.18c-9.43 0-17.06 7.63-17.06 17.06v125.77c0 9.32 7.63 17.06 17.06 17.06h170.38c9.43 0 17.06-7.74 17.06-17.06V959.76c0-8.58-6.46-15.79-14.83-16.85zm-72.05 112h-30.62s5.09-24.79 8.26-38.25c-5.19-2.54-8.69-7.84-8.69-13.99 0-8.69 6.99-15.68 15.68-15.68s15.79 6.99 15.79 15.68c0 6.15-3.6 11.44-8.79 13.99 3.18 13.46 8.37 38.25 8.37 38.25z"/><path fill="#131468" d="M2012.84 792.57c-3.18 13.57-6.8 27.05-11.35 40.3-21.06 61.29-57.62 116.29-106.26 159.16-45.26 39.9-98.34 71.28-153.37 95.69-16.82 7.46-34 14.23-51.43 20.38 38.16 87.74 101.46 176.34 206.58 233.98 243.61-133.58 262.88-433.37 263.97-503.53-58.04-8.95-107.55-26.46-148.14-45.98z" opacity=".2" class="color132368 svgShape"/><path fill="#131468" d="M2331.7 1526.95h-685.18v123.88h685.18zM1627.81 1526.95h-142.55v123.88h142.55zM2331.7 1699.78h-685.18v123.88h685.18zM2242.52 1984.33h-685.18v20.17h685.18zM1627.81 1699.78h-142.55v123.88h142.55z" opacity=".1" class="color132368 svgShape"/><path fill="#ffffff" d="M1921.8 1782.89h52.48v5.45h-52.48zM1987.14 1782.89h52.48v5.45h-52.48zM2052.47 1782.89h52.48v5.45h-52.48zM1856.47 1782.89h52.48v5.45h-52.48zM1791.14 1782.89h52.48v5.45h-52.48zM1725.81 1782.89h52.48v5.45h-52.48zM1572.22 1589.44c4.51-3.66 7.39-9.25 7.39-15.51 0-11.03-8.94-19.98-19.98-19.98-11.03 0-19.98 8.94-19.98 19.98 0 6.26 2.88 11.85 7.39 15.51-19.59 5.35-34.15 22.9-35.01 43.98h95.18c-.84-21.08-15.4-38.63-34.99-43.98zM1544.63 1754.6v-13.49c0-8.83 7.19-16.02 16.02-16.02 8.84 0 16.02 7.19 16.02 16.02v13.49h10.71v-13.49c0-14.74-11.99-26.73-26.73-26.73s-26.73 11.99-26.73 26.73v13.49h10.71z" class="colorfff svgShape"/><path fill="#ffffff" d="M1592.27 1747.35h-20.47c-.14 0-.28-.03-.4-.07h-41.77c-3.43 0-6.2 2.79-6.2 6.22v45.62c0 3.4 2.78 6.19 6.2 6.19h61.82c3.43 0 6.2-2.79 6.2-6.19v-45.62c0-3.15-2.35-5.75-5.38-6.15zm-24.99 43.28h-13.48s2.24-10.9 3.65-16.84a6.829 6.829 0 0 1-3.84-6.16c0-3.82 3.1-6.91 6.92-6.91s6.92 3.09 6.92 6.91c0 2.7-1.57 5.04-3.85 6.16 1.43 5.94 3.68 16.84 3.68 16.84zM1722.19 1569.11h13.2v32.42c0 6.41 3.16 10.11 9.42 10.11 6.25 0 9.57-3.7 9.57-10.11v-32.42h13.2v32.35c0 14.98-10.5 22.39-23 22.39-12.58 0-22.38-7.41-22.38-22.39v-32.35zM1796.48 1623.84c-11.66 0-20.77-5.79-21.15-16.75h14.05c.38 4.17 3.01 6.17 6.71 6.17 3.87 0 6.34-1.93 6.34-5.09 0-10.03-27.1-4.63-26.95-23.85 0-10.27 8.42-15.98 19.76-15.98 11.81 0 19.76 5.87 20.3 16.21h-14.28c-.23-3.48-2.7-5.56-6.25-5.63-3.17-.08-5.56 1.54-5.56 4.94 0 9.42 26.79 5.17 26.79 23.31.01 9.11-7.1 16.67-19.76 16.67zM1857.57 1579.69h-19.99v10.96h17.67v10.19h-17.67v11.89h19.99v10.57h-33.19v-54.19h33.19v10.58zM1888.31 1569.11c13.28 0 19.92 7.64 19.92 17.06 0 6.79-3.71 13.2-12.04 15.67l12.5 21.46h-14.9l-11.27-20.46h-3.16v20.46h-13.21v-54.19h22.16zm-.77 10.96h-8.18v13.43h8.18c4.94 0 7.26-2.55 7.26-6.79 0-4.01-2.32-6.64-7.26-6.64zM1964.99 1569.11v54.19h-13.2l-22.07-33.43v33.43h-13.21v-54.19h13.21l22.07 33.58v-33.58h13.2zM2008.33 1613.73h-20.22l-3.24 9.57h-13.82l19.61-54.19h15.29l19.6 54.19h-13.97l-3.25-9.57zm-10.11-30.03-6.64 19.84h13.36l-6.72-19.84zM2031.52 1569.11h15.59l15.21 37.52 15.05-37.52h15.52v54.19h-13.2v-32.5l-12.12 32.5h-10.65l-12.19-32.57v32.57h-13.21v-54.19zM2135.61 1579.69h-19.99v10.96h17.68v10.19h-17.68v11.89h19.99v10.57h-33.19v-54.19h33.19v10.58z" class="colorfff svgShape"/><circle cx="2327.96" cy="2518.41" r="57.41" fill="#131468" opacity=".1" transform="rotate(-76.714 2328.203 2518.523)" class="color132368 svgShape"/><path fill="#ffffff" d="m2343.65 2518.41-8.38 8.44-14.56 14.49-8.44-8.37 14.56-14.56-14.56-14.56 8.44-8.38z" class="colorfff svgShape"/><path fill="#53d86a" d="M2475.73 1461.6v685.56L1325.27 1629.3V943.68zM2475.73 1088.06v241.4L1325.27 811.54V570.2z" enable-background="new" opacity=".1" class="colorf4f2f3 svgShape"/></g><g><path fill="#03042b" d="M631.77 2665.96s-.89 15.27 12.64 22.11c33.57 16.98 144.98-1.19 150.46-11.45 5.47-10.26 3.55-23.3 3.55-23.3l-166.65 12.64z" class="color21032b svgShape"/><path fill="#ffd6aa" d="M724.11 2531.69c0 3.06 7.65 99.51 7.65 99.51l55.11 1.53 9.19-101.81-71.95.77z" class="colorffafaa svgShape"/><path fill="#ddb58a" d="M724.11 2531.69c0 1.15 1.09 15.57 2.44 33.09 13.82.28 27.45 1.91 40.95 4.97 5.51 1.25 17.33 4.4 14.19 12.48-2.85 7.32-13.05 9.23-19.83 8.07-8.22-1.4-15.67-5.47-23.23-8.77-3.38-1.48-7.21-3.15-11.1-4.07 2.04 26.14 4.23 53.73 4.23 53.73l55.11 1.53 9.19-101.81-71.95.78z" opacity=".5" class="colordd8a8a svgShape"/><path fill="#131468" d="M730.22 2601.26c.05 3.88-.2 7.92-.98 12.09-5.47 29.43-14.71 54.75-14.71 54.75s70.83 10.27 80.75-2.39c7.17-9.14 2.91-40.42-1.56-64.44h-63.5z" class="color132368 svgShape"/><path fill="#03042b" d="M763.64 2617.75c4.24-2.72 8.63-6.21 14-5.14 5.28 1.05 9.27 5.98 11.4 10.63 2.4 5.23 3.12 11.02 4.24 16.61 1.08 5.37 2.76 10.51 5.4 15.31 1.62-13.78-1.61-35.89-4.96-53.91h-63.5c.05 3.88-.2 7.92-.98 12.09-.72 3.88-1.51 7.68-2.34 11.37 12.65 2.5 25.67.15 36.74-6.96z" opacity=".25" class="color21032b svgShape"/><path fill="#03042b" d="M677.24 2629.43s30.11 2.4 41.4 18.48c11.29 16.08 42.09-35.93 33.19-54.06-8.9-18.13-46.53-5.47-46.53-5.47s7.18 35.23-28.06 41.05z" class="color21032b svgShape"/><path fill="#131468" d="M634.53 2675.44c18.41 14.91 81.71 17.97 94.71 2.58 13-15.4-1.98-71.79-59.54-58.85-23.72 5.33-48.06 45.83-35.17 56.27z" class="color132368 svgShape"/><path fill="#ffffff" d="M640.23 2661.07c-2.3-7.16 17.8-41.72 31.19-32.72 13.4 8.99-29.47 38.08-31.19 32.72zM678.5 2622.61c7.7-7.7 34.25 9.19 17.03 9.76-17.22.57-18.56-8.23-17.03-9.76z" opacity=".1" class="colorfff svgShape"/><path fill="#03042b" d="M1135.88 2665.96s.89 15.27-12.64 22.11c-33.57 16.98-144.98-1.19-150.46-11.45-5.47-10.26-3.55-23.3-3.55-23.3l166.65 12.64z" class="color21032b svgShape"/><path fill="#ffd6aa" d="M1043.54 2531.69c0 3.06-7.65 99.51-7.65 99.51l-55.11 1.53-9.19-101.81 71.95.77z" class="colorffafaa svgShape"/><path fill="#ddb58a" d="M1029.74 2577.28c-6.33 1.06-12.21 2.9-17.94 5.8-7.91 4-18.29 9.45-27.05 4.61-7.31-4.04-9.81-15.42-2.42-20.59 3.95-2.77 9.11-3.31 13.79-3.51 5.61-.23 11.24.04 16.86.02 6.15-.02 12.28-.19 18.42-.43 3.26-.13 6.53-.2 9.78-.5.03 0 .05-.01.08-.01 1.28-16.55 2.28-29.89 2.28-30.99l-71.95-.77 9.19 101.81 55.11-1.53s2.28-28.78 4.36-55.4c-3.58.29-7.18.93-10.51 1.49z" opacity=".5" class="colordd8a8a svgShape"/><path fill="#131468" d="M1037.42 2601.26c-.05 3.88.2 7.92.98 12.09 5.47 29.43 14.71 54.75 14.71 54.75s-70.83 10.27-80.75-2.39c-7.17-9.14-2.91-40.42 1.56-64.44h63.5z" class="color132368 svgShape"/><path fill="#03042b" d="M988.04 2659.22c-5.26-6.62-6.88-14.34-6.19-22.72.63-7.65 3.25-16.56 9.67-21.37 7.44-5.56 17.78-2.64 23.11 4.41 3.64 4.81 5.8 9.79 10.82 13.45 5.1 3.71 12.12 6.98 18.49 4.98-1.96-7.48-3.92-15.86-5.55-24.62-.78-4.17-1.03-8.21-.98-12.09h-63.5c-4.46 24.02-8.72 55.29-1.56 64.44 3.31 4.22 13.41 5.89 25.39 6.24-2.68-4.6-6.4-8.58-9.7-12.72z" opacity=".25" class="color21032b svgShape"/><path fill="#03042b" d="M1090.41 2629.43s-30.11 2.4-41.4 18.48c-11.29 16.08-42.09-35.93-33.19-54.06 8.9-18.13 46.53-5.47 46.53-5.47s-7.19 35.23 28.06 41.05z" class="color21032b svgShape"/><path fill="#131468" d="M1133.11 2675.44c-18.41 14.91-81.71 17.97-94.71 2.58-13-15.4 1.98-71.79 59.54-58.85 23.72 5.33 48.07 45.83 35.17 56.27z" class="color132368 svgShape"/><path fill="#ffffff" d="M1047.26 2663.01c-2.3-7.16 17.8-41.72 31.19-32.72 13.4 8.99-29.46 38.08-31.19 32.72zM1085.54 2624.54c7.7-7.7 34.25 9.19 17.03 9.76-17.22.58-18.56-8.23-17.03-9.76z" opacity=".1" class="colorfff svgShape"/><linearGradient id="g" x1="775.996" x2="778.27" y1="1336.118" y2="2561.686" gradientUnits="userSpaceOnUse"><stop offset="0" stop-color="#1d1f87" class="stopColor871d5c svgShape"/><stop offset="1" stop-color="#181960" class="stopColor601843 svgShape"/></linearGradient><path fill="url(#g)" d="m583.26 1404.17 129.36 1155.07 86.5-2.29 169.93-1116.04z"/><path fill="#181960" d="M756.01 1759.46s-23.29-97.47-85.83-152.11c0 0 139.63 5.17 85.83 152.11z" opacity=".5" class="color601843 svgShape"/><path fill="#53d86a" d="M689.41 1868.25c-24.28 36.79-91.85-212.8-32.15-229.64 59.71-16.84 82.67 153.09 32.15 229.64zM730.74 2307.62c-9.71-13.76-70.42-217.39 3.06-237.29 73.49-19.9 15.32 263.32-3.06 237.29z" enable-background="new" opacity=".1" class="colorf4f2f3 svgShape"/><path fill="#181960" d="M689.79 1991.87s57.41 27.56 96.45 8.04c0 0-16.07 32.15-56.26 29.85-40.19-2.3-40.19-37.89-40.19-37.89zM841.83 2153.72c-11.03 14.92-23.5 30.56-30.19 48.02-12.11 31.64-6.19 66.73-11.81 99.58-3.17 18.54-9.74 36.64-14.76 54.76-5.26 18.97-10.33 38-15.28 57.05-4.99 19.19-9.86 38.41-14.7 57.64-4.08 16.21-7.26 32.89-13.44 48.47-5.32 13.41-11.76 26.35-17.24 39.69l74.72-1.98L865 2124.27c-7.97 9.62-15.75 19.4-23.17 29.45z" opacity=".5" class="color601843 svgShape"/><linearGradient id="h" x1="987.262" x2="989.533" y1="1335.829" y2="2559.76" gradientUnits="userSpaceOnUse"><stop offset="0" stop-color="#1d1f87" class="stopColor871d5c svgShape"/><stop offset="1" stop-color="#181960" class="stopColor601843 svgShape"/></linearGradient><path fill="url(#h)" d="m1180.32 1404.17-128.6 1153.54-87.26-.76-169.93-1116.04z"/><path fill="#53d86a" d="M1006.31 1869.78c-13.89-59.05 30.62-180.65 81.14-139.31 50.52 41.33-62.77 217.39-81.14 139.31zM1020.09 2316.81c-17.32-17.32-21.43-264.85 27.56-251.07 48.98 13.78 4.59 283.22-27.56 251.07z" enable-background="new" opacity=".1" class="colorf4f2f3 svgShape"/><path fill="#181960" d="M1123.71 1612.37s-94.65 32.92-142.76 100.61c-.01 0-8.83-139.45 142.76-100.61zM977.99 1986.13s58.56 19.52 106.78 9.19c0 0-6.89 26.41-53.96 22.96-47.08-3.45-52.82-32.15-52.82-32.15z" opacity=".5" class="color601843 svgShape"/><path fill="#181960" d="m881.79 1432.6-298.53-28.43 22.73 202.92c14.51-6.75 31.07-9.54 46.72-11.4 18.12-2.15 36.69-3.42 54.95-3.28 14.13.11 29.22 1.24 41.78 8.32 11.38 6.4 17.93 17.65 21.54 29.87 2.47 8.35 3.64 17.03 4.37 25.68.94 11.09 3.36 21.96 7.45 32.32 7.58 19.19 19.91 35.84 31.05 53.04 26.53 40.94 43.44 87 54.91 134.26 5.09 20.97 12.34 43.04 24.84 60.52l36.03-236.62c6.41-5.72 12.51-11.73 17.51-18.67 5.57-7.73 7.79-15.77 9.18-25.08 1.24-8.3 2.66-16.1 7.55-23.09 7.01-10.03 16.44-17.64 26.69-24.2 13.1-8.38 27.38-14.94 42.05-20.07 14.3-5 29.16-8.81 44.27-10.28 12.16-1.18 26.26-1.53 37.58 3.82 19.95 9.43 31.21 26.9 40.94 45.51l24.92-223.55-298.53 28.41zM998.21 2498.34c-8.52-39.34-22.08-77.39-30.47-116.76-4.09-19.17-6.89-38.62-7.35-58.24-.26-10.83.62-21.54 1.22-32.33.66-11.83.96-23.68.87-35.53-.15-22.13-1.73-44.2-3.93-66.21-2.23-22.26-6.01-44.59-7.22-66.93-.84-15.44 1.18-30.59 9.83-43.72 7.69-11.67 18.3-21.28 27.62-31.69-16.19-7.36-31.84-15.98-46.06-26.7-23.68-17.86-42.09-41-55.99-67.09-8.34-15.65-15.27-31.99-21.6-48.58l99.34 652.39 40.87.36c-.12-19.85-2.94-39.6-7.13-58.97z" opacity=".5" class="color601843 svgShape"/><path fill="#ffd6aa" d="m1136.37 846.98 88.1 135.63 247.64-134.88 35.43 46.22s-161.36 174.39-272.35 245.58c-100.23 64.29-212.03-203.61-212.03-203.61l113.21-88.94z" class="colorffafaa svgShape"/><path fill="#ffffff" d="M1243.26 983.42c-5.01-5.14 157.19-94.1 165.74-84.48 8.55 9.62-124.04 127.25-165.74 84.48z" opacity=".2" class="colorfff svgShape"/><path fill="#ddb58a" d="M1224.46 982.61s-8.04 21.43-1.15 42.87c.01 0-20.28-17.61 1.15-42.87z" class="colordd8a8a svgShape"/><path fill="#ddb58a" d="M1386.93 993.97c-12.75 10.21-23.85 21.02-40.19 25-8.8 2.14-17.35 3.52-25.68 7.32-7.56 3.45-14.47 8.03-20.93 13.23-13.47 10.83-24.49 24.51-38.16 35.04-12.11 9.33-27.9 14.17-42.11 6.51-7.29-3.93-12.68-10.2-17.18-17.03-4.47-6.78-8.59-13.82-11.72-21.32-3.1-7.42-5.35-15.35-5.22-23.45.13-7.95 3.49-15.34 7.77-21.9 2.43-3.72 5.19-7.24 7.4-11.1 2.5-4.37 3.78-9.03 5.06-13.86 1.22-4.56 2.2-9.2 2.86-13.86l-72.46-111.56-113.22 88.94s111.8 267.9 212.03 203.61c62.56-40.13 141.12-113.04 197.77-169.03-16.6 5.34-32.19 12.38-46.02 23.46z" enable-background="new" opacity=".25" class="colordd8a8a svgShape"/><path fill="#ddb58a" d="M1190.43 1082.15c-3.59-11.8-7.32-23.91-13.05-34.88-5-9.58-11.56-19.41-12.73-30.41-2.02-19.11 14.99-28.88 24.48-42.8 6.1-8.95 9.36-18.94 10.75-29.29l-63.51-97.78-113.22 88.94s92.59 221.83 184.79 213.3c-3.94-22.84-10.79-44.95-17.51-67.08z" enable-background="new" opacity=".25" class="colordd8a8a svgShape"/><path fill="#ffd6aa" d="M1540.73 892.72c-5.07 2.54-10.23 4.39-15.14 5.75-15.13 4.2-27.9 3.58-27.9 3.58s-45.82-11.45-33.16-51.97c.07-.16.1-.38.12-.54-.84-4.62 1.58-11.88 5.67-19.28 2.83-5.1 6.45-10.27 10.32-14.75 9.47-10.93-.65-49.24 8.13-50.88 8.8-1.61 20.68 19.03 17.85 30.72-2.8 11.66 7.68 14.05 16.64 6.93 13.81-10.99 66.76-75.86 75.76-67.56 9 8.31-43.68 72.38-43.68 72.38s71.92-62.6 76.4-50c4.46 12.57-63.13 68.38-63.13 68.38s56-41.21 65.59-33.36c9.62 7.82-53.69 56.78-53.69 56.78s43.6-23.86 51.71-16.18c8.11 7.67-70.82 49.6-91.49 60z" class="colorffafaa svgShape"/><path fill="#ddb58a" d="M1465.82 867.26c.7 8.18 5.52 15.41 11.37 20.93 5.8 5.47 13.21 9.8 21.21 10.83 2.37.31 4.68.2 6.96-.1-1.29-.21-2.54-.46-3.71-.81-14.36-4.25-16.97-20.58-16.97-20.58-3.35-.99-12.36-11.25-17.63-21.66-.74 3.76-1.56 7.53-1.23 11.39zM1580.78 855.71c-1.58-4.85-3.23-9.64-5.15-14.31-1.93-4.65-3.99-9.29-6.8-13.39-2.76-4.19-5.92-8.17-9.14-12.05-3.25-3.86-6.67-7.61-10.49-10.97 4.32 2.75 8.08 6.28 11.6 9.99 3.53 3.72 6.67 7.75 9.65 11.95 2.85 4.36 4.91 9.11 6.61 13.94 1.63 4.84 2.94 9.79 3.72 14.84z" class="colordd8a8a svgShape"/><path fill="#ffd6aa" d="M558 888.25s-121.71 122.86-50.52 180.27C550.47 1103.18 651 985.84 651 985.84l-93-97.59z" class="colorffafaa svgShape"/><path fill="#ddb58a" d="M558 888.25s-121.71 122.86-50.52 180.27C550.47 1103.18 651 985.84 651 985.84l-93-97.59z" enable-background="new" opacity=".25" class="colordd8a8a svgShape"/><linearGradient id="i" x1="985.109" x2="1297.415" y1="478.302" y2="1660.934" gradientUnits="userSpaceOnUse"><stop offset="0" stop-color="#ffa545" class="stopColorffe245 svgShape"/><stop offset=".526" stop-color="#de7200" class="stopColorde007b svgShape"/><stop offset="1" stop-color="#fe9526" class="stopColore38427 svgShape"/></linearGradient><path fill="url(#i)" d="M940.35 666.65s191.75 107.93 250.3 231.93c0 0 2.3 89.56-83.82 90.71-86.11 1.15-166.48-322.64-166.48-322.64z"/><path fill="#17197a" d="M1190.65 898.58c-1.7-3.6-3.54-7.19-5.46-10.77-5.6 6.23-14.17 9.62-22.68 11.05-26.14 4.4-53.39-2.31-76.58-14.3-.43-.22-.86-.49-1.29-.72 2.42 3.92 4.4 8.13 6.07 12.15 7.72 18.52 10.89 38.35 16.36 57.54 3.29 11.57 6.9 23.28 9.94 35.11 75.7-7.81 73.64-90.06 73.64-90.06z" enable-background="new" opacity=".25" class="color7a1752 svgShape"/><linearGradient id="j" x1="590.578" x2="902.884" y1="582.488" y2="1765.121" gradientUnits="userSpaceOnUse"><stop offset="0" stop-color="#ffa545" class="stopColorffe245 svgShape"/><stop offset=".526" stop-color="#de7200" class="stopColorde007b svgShape"/><stop offset="1" stop-color="#fe9526" class="stopColore38427 svgShape"/></linearGradient><path fill="url(#j)" d="M770.42 666.65s-191.75 107.93-250.3 231.93c0 0-2.3 89.56 83.82 90.71 86.11 1.15 166.48-322.64 166.48-322.64z"/><path fill="#17197a" d="M693.31 856.72c-12.32 3.1-24.5 6.76-36.5 10.94-9.65 3.36-19.56 6.71-29.62 8.63-15.16 2.89-32.28.21-40.79-13.99-6.93-11.56-6.65-26.37-6.25-39.38.1-3.06.29-6.19.47-9.33-24.82 26.58-46.5 55.31-60.52 84.99 0 0-2.3 89.56 83.82 90.71 38.66.52 76.16-64.47 105.76-136.25-5.47 1.14-10.94 2.31-16.37 3.68z" enable-background="new" opacity=".25" class="color7a1752 svgShape"/><linearGradient id="k" x1="692.632" x2="979.358" y1="565.287" y2="1651.053" gradientUnits="userSpaceOnUse"><stop offset="0" stop-color="#ffa545" class="stopColorffe245 svgShape"/><stop offset=".526" stop-color="#de7200" class="stopColorde007b svgShape"/><stop offset="1" stop-color="#fe9526" class="stopColore38427 svgShape"/></linearGradient><path fill="url(#k)" d="M845.62 646.69c-275.06-3.14-315.44 682.65-263.76 780.81 118.12 83.84 555.22 112.13 600.54-17.98 31.33-89.91-13.96-759.14-336.78-762.83z"/><path fill="#53d86a" d="M730.8 919.27c35.75-87.3 12.05-62.92 53-100.66 40.96-37.75 66.25 2.22 109.62-17.76 43.37-19.99 98.78-22.21 80.71 22.21-18.07 44.41 22.25 62.89 39.75 86.6 53 71.79-341.31 151.8-283.08 9.61z" enable-background="new" opacity=".1" class="colorf4f2f3 svgShape"/><path fill="#17197a" d="m661.66 785.7 70.61-95.3c.01 0-62 61.43-70.61 95.3zM1050.71 770.96l-82.1-85.92s73.48 52.05 82.1 85.92z" enable-background="new" opacity=".25" class="color7a1752 svgShape"/><path fill="#17197a" d="M1086.65 832.63c3.5 53.84.14 108.08 3.72 161.95 1.1 16.52-.97 32.48-4.65 48.57-3.67 16.09-8.54 32.13-9.89 48.64-2.57 31.49 12.8 59.91 27.15 86.84 14.84 27.87 23.98 57.94 21.97 89.78-1.85 29.46-12.66 57.41-26.73 83.07-24.69 45.02-57.88 90.98-109.16 106.59-21.96 6.69-45.22 7.79-68.03 7.52-26.7-.31-54.03-1.18-80.42-5.45-22.07-3.58-43.08-10.96-61.15-24.37-21.95-16.29-39.94-38.76-52.98-62.65-14.01-25.64-21.92-54.01-26.78-82.69-2.63-15.54-4.82-31.31-6-47.03-1.35-17.92-.59-35.92 1.39-53.77 3.97-35.7 11.8-70.97 17.51-106.41 2.57-15.96 5.93-31.93 5.86-48.17-.03-7.81-.78-15.53-4.43-22.53-3.2-6.13-7.72-11.43-12.17-16.68-8.63-10.18-17.79-21.23-18.44-35.2-.7-15.09 8.2-29.65 2.19-44.51-3.85-9.54-13.02-10.33-21.4-14.13-9.17-4.16-16.57-10.81-20.22-20.31-7.64-19.86-1.88-43.43 3.69-63.05.68-2.39 1.49-4.74 2.24-7.11-95.7 208.63-103.31 549-68.05 615.96 118.12 83.84 555.22 112.13 600.54-17.98 20.66-59.31 7.95-370.73-95.76-576.88z" enable-background="new" opacity=".1" class="color7a1752 svgShape"/><path fill="#17197a" d="M682.33 1127.29c0 19.01-67.74-72.91-39.04-98.74 28.71-25.84 39.04 78.64 39.04 98.74zM1057.69 878.96c9.24-43.14 40.99 169.2-3.15 142.93-44.15-26.28-.01-128.22 3.15-142.93M874.65 781.3c60.43-7.97 76.72-93.51 79.22-104.56-32.03-18.76-67.98-29.59-108.26-30.05-32.89-.38-62.39 9.19-88.82 26.33 5.58 24.14 48.2 117.46 117.86 108.28zM630.59 1433.99c-.74-18.92-3.34-37.72-3.99-56.64-.76-22.06-.7-44.34-.11-66.4.31-11.45.95-22.9 2.31-34.27 1.31-10.98 4.15-21.66 7.08-32.3 5.2-18.85 11.91-39.75 8.15-59.5-2.41-12.66-10.31-22.74-18.49-32.29-8.35-9.74-17.01-19.6-21.49-31.84-5.64-15.41-3.65-31.34-.27-47.03 4.02-18.69 9.83-36.95 13.48-55.72 3.18-16.35 5.06-33.96-.18-50.07-7.59 3.53-14.97 8-21.94 13.09-42.09 188.32-39.97 395.78-13.27 446.49 12.83 9.11 29.44 17.56 48.9 25.23.19-6.36.05-12.69-.18-18.75zM1101.73 864.88c3.21 27.06 8.43 53.82 13.47 80.58 2.63 13.98 5.2 27.98 7.37 42.04 2.13 13.79 4.45 27.92 4.87 41.88 1.38 46.4-14.32 93.19-2.62 139.18 5.86 23.02 17.65 44.04 23.32 67.13 5.87 23.92 7.07 49.39 7.51 73.93.74 41.25.24 84.41-15.97 123.05-5.03 11.98-11.44 23.12-18.72 33.68 30.98-13.9 53.01-32.61 61.45-56.82 19.61-56.31 9.14-339.72-80.68-544.65zM703.37 1175.23s192.51 106.23 346.57-46.75c0 0-128.87 220.74-346.57 46.75zM746.23 1063.09s134.21 74.06 241.62-32.59c0 0-89.84 153.89-241.62 32.59zM778.01 1398.26s152.73 74.22 248.54-101.1c0 0 21.83 109.91-79.25 142.24-101.08 32.33-169.29-41.14-169.29-41.14z" enable-background="new" opacity=".25" class="color7a1752 svgShape"/><path fill="#ffd6aa" d="m904.03 546.19-67.36 1.98-44.99 107.85s20.38 76.17 69.46 84.93c40.48 7.23 68.28-73.93 68.28-73.93l-25.39-120.83z" class="colorffafaa svgShape"/><path fill="#ddb58a" d="m904.04 546.19-67.36 1.98-31.44 75.37c2.04 6.16 5.31 11.97 9.04 17.2 6.29 8.82 14.31 16.88 23.61 22.54 9.15 5.56 19.19 7.15 29.62 8.37 8.56 1 16.91 4.32 22.17 11.42 4.2 5.68 6.59 13.07 4.16 19.95-2.11 6-7.35 10.29-12.81 13.18-6.09 3.22-13.01 5.05-19.87 5.52-9.53.66-18.8-2.3-27.8-5.05-4.56-1.39-9.14-2.75-13.78-3.85 10.54 13.56 24.26 25.05 41.57 28.14 40.48 7.23 68.28-73.93 68.28-73.93l-25.39-120.84z" enable-background="new" opacity=".25" class="colordd8a8a svgShape"/><path fill="#ddb58a" d="M827.86 635.04a177.27 177.27 0 0 0 41.1 19.82c18.31 6.05 38.1 6.93 57.12 4.44.56-.08 1.12-.18 1.68-.25L904.04 546.2l-67.36 1.98-29.33 70.31c6.1 6.51 13.56 12 20.51 16.55z" enable-background="new" opacity=".25" class="colordd8a8a svgShape"/><path fill="#131444" d="M951.37 473.55s24.37-11.01 15.11-44.97c0 0 21.72-17.74 6.11-49.2-15.62-31.46-48.24-13.83-48.24-13.83s-19.8-47.91-54.01-48.67c-34.2-.75-22.57 17.28-22.57 17.28s-58.76-29.44-85.86-3.39 5.65 60.04 5.65 60.04-15.73 9.78-17.87 32.52c-3.42 36.36 18.48 40.74 18.48 40.74s-2.03 36.84 16.92 44.26c18.97 7.42 172.88 71.94 166.28-34.78z" class="color131e44 svgShape"/><path fill="#ffd6aa" d="M973.63 494.57c-7.95-14.36-21.42-9.75-28.99-5.52-1.34-31.26-5.79-54.99-5.79-54.99-.32-1.67-.9-3.24-1.74-4.72-16.44-27.6-130.08-25.04-152.32 1.57-2.13 2.46-3.37 5.23-3.72 8.16 0 0-2.7 24.09-1.78 55.47-7.75-3.81-21.87-8-29.03 7.13-9.99 21.11 14.94 51.28 35.14 49.78 9.3 45.65 31.31 87.49 80.95 85.91 50.6-1.61 69.99-44.75 76.18-90.87 20.04-.6 42.26-31.75 31.1-51.92z" class="colorffafaa svgShape"/><path fill="#ddb58a" d="M755.59 499.97c1.46.13 2.88-.37 3.82-1.5.82-.98 1.31-2.18 2.07-3.2.73-.97 1.8-1.71 2.98-1.99 2.03-.49 3.7.81 4.78 2.42 1.14 1.7 1.83 3.72 2.25 5.71.67 3.18 1.35 6.35 2.46 9.42 1.15 3.16 2.72 6.18 4.93 8.73 1.08 1.25 2.31 2.42 3.68 3.35.31.21.87.63 1.28.53.5-.13.45-1.08.45-1.46.01-3.86-1.19-7.61-1.9-11.37-1.01-5.39-2.17-10.76-3.28-16.13-7.2-3.51-19.72-7.22-27.19 4.18 1.14.63 2.36 1.19 3.67 1.31zM794.69 460.6c7.82 3.96 15.8 4.43 24.16 2.06 4.13-1.17 7.54-2.63 10.96-5.18 2.15-1.6 4.31-3.13 7.04-3.36 5.76-.5 11.23 3.37 15.97 6.1 6.22 3.58 13.91 8.03 21.34 7.44 6.63-.53 11.06-6.63 17.74-6.95 7.28-.34 14.22 4.12 20.77 6.66 3.58 1.39 6.83 2.42 10.65 1.51 2.79-.67 5.62-1.75 8.54-1.56 4.22.28 7.84 4.5 11.78 5.4-1.82-22.83-4.79-38.67-4.79-38.67-.32-1.67-.9-3.24-1.74-4.72-16.44-27.6-130.08-25.04-152.32 1.57-2.13 2.46-3.37 5.23-3.72 8.16 0 0-.4 3.63-.85 9.86 3.98 4.82 8.91 8.86 14.47 11.68zM942.86 511.79c-.34 1.59-.63 3.18-.94 4.76-.75 3.91-1.73 7.76-2.74 11.61-2.41 9.19-4.82 18.49-7.66 27.56-1.78 5.69-4.54 10.99-8.65 15.35-2.12 2.26-4.78 4.08-6.42 6.75-1.46 2.37-1.91 5.2-2.4 7.89-.9 4.95-1.9 10.03-5.66 13.68-4.56 4.41-12 5.92-18.01 7.05-7.65 1.44-15.47 2.01-22.97 4.2-5.63 1.64-9.84 3.85-11.46 9.72-1.44 5.21-1.74 10.68-4.11 15.62-.07.14-.17.25-.24.39 4.64.75 9.5 1.17 14.73 1 50.6-1.61 69.99-44.75 76.18-90.87.54-.02 1.1-.14 1.64-.2 1.19-11.28 1.39-23.39-1.29-34.51z" enable-background="new" opacity=".25" class="colordd8a8a svgShape"/><path fill="#131444" d="M867.42 586.77c-8.74.28-14.01-4.65-14.09-4.72-.83-.8-.85-2.11-.06-2.94.79-.83 2.1-.85 2.93-.06.38.35 9.45 8.62 24.06-1.07a2.078 2.078 0 0 1 2.3 3.46c-5.75 3.81-10.86 5.19-15.14 5.33zM859.59 546.73c-2.96-6.14.88-13.35 1.04-13.66a2.934 2.934 0 0 1 3.95-1.18c1.43.76 1.95 2.52 1.19 3.95-.75 1.4-2.25 5.62-.85 8.51 1.09 2.08 3.8 3.38 8.05 3.86 1.6.18 2.76 1.62 2.57 3.23a2.915 2.915 0 0 1-3.23 2.57c-6.3-.71-10.53-3.07-12.57-6.99-.05-.08-.1-.18-.15-.29zM912.99 507.35c.16 5.09-3.21 9.33-7.51 9.46-4.3.14-7.93-3.87-8.09-8.96-.16-5.09 3.21-9.34 7.51-9.48 1.2-.04 2.35.24 3.39.83-1.51.5-2.59 2.18-2.53 4.13.07 2.3 1.73 4.13 3.68 4.07 1.43-.05 2.65-1.11 3.15-2.58.23.8.38 1.64.4 2.53zM808.76 487.45c3.88.93 27.53 10.31 31.54 5.45 4.01-4.86-3.68-12.15-19.71-15.45-16.02-3.29-15.58 9.1-11.83 10zM921.78 488.8c-3.96.47-28.55 7.02-31.97 1.72-3.42-5.3 5.08-11.63 21.38-13.04 16.3-1.4 14.42 10.86 10.59 11.32zM832.74 508.73c.16 5.09-3.21 9.33-7.51 9.46-4.3.14-7.93-3.87-8.09-8.96-.16-5.09 3.21-9.34 7.51-9.49 1.21-.04 2.35.24 3.4.82-1.51.5-2.6 2.18-2.53 4.13.07 2.3 1.73 4.13 3.68 4.07 1.43-.05 2.65-1.11 3.15-2.58.23.82.37 1.66.39 2.55z" class="color131e44 svgShape"/><path fill="#ddb58a" d="M805.29 549.59c.35-8.45 9.27-14.94 19.92-14.5 10.65.44 19.01 7.64 18.66 16.09-.35 8.45-9.27 14.94-19.92 14.5-10.65-.44-19.01-7.65-18.66-16.09zM887.83 546.89c.35-8.45 9.27-14.94 19.92-14.5 10.65.44 19.01 7.64 18.66 16.09-.35 8.45-9.27 14.94-19.92 14.5-10.65-.44-19.01-7.64-18.66-16.09z" enable-background="new" opacity=".25" class="colordd8a8a svgShape"/><path fill="#131444" d="M967.99 512.83c.57-.02 1.09-.37 1.29-.94 4.45-12.54-8.18-19.48-8.31-19.54a1.419 1.419 0 0 0-1.34 2.5c.44.24 10.6 5.87 6.98 16.09a1.415 1.415 0 0 0 1.38 1.89zM755.22 519.73c-.57.02-1.11-.31-1.35-.86-5.24-12.23 6.93-19.95 7.05-20.03.67-.42 1.54-.21 1.96.45.41.67.21 1.54-.45 1.96-.42.26-10.21 6.53-5.93 16.5.31.73-.02 1.56-.74 1.86-.2.08-.37.11-.54.12zM772.11 424.59s15.36 18.97 38.74 15.54c23.37-3.43 29.77-13.23 29.77-13.23s9.39 28.29 47.98 11.01c0 0 10.31 28.94 35.94 12.02 0 0 17.89 14.19 23.2-8.79 5.31-22.98 16.71-46.42-41.4-57.05-93.73-17.14-129.07 12.83-134.23 40.5z" class="color131e44 svgShape"/><path fill="#131444" d="M936.7 428.3c-.04-.17-.26-.86-.43-1.42-1.71.64-3.67 1.09-5.4 1.49-3.38.79-6.91.9-10.18-.41-3.05-1.21-5.51-3.31-8.07-5.29-2.61-2.01-5.95-4.63-9.45-4.42-3.56.22-7.18 2.93-10.33 4.36-3.23 1.48-5.73-3.27-2.75-4.89-4.47-.53-8.88-2.17-12.36-4.43-1.68-1.09-2.95-2.49-4.37-3.86-1.82-1.75-3.14-1.03-5.37-.29-5.06 1.69-10.05 3.58-15.18 5.05-9.71 2.78-20.25 3.95-29.61-.63-1.28-.63-2.46-1.54-3.75-2.13-.19-.09-.25-.17-.27-.24-.34.26-.77.72-.98.9a68.954 68.954 0 0 1-6.25 4.92c-4.68 3.26-9.74 6.52-15.09 8.54-7.02 2.65-14.48 3.07-21.81 2.07 5.5 5.21 18.44 15.04 35.81 12.49 23.37-3.43 29.77-13.23 29.77-13.23s9.39 28.29 47.98 11.01c0 0 10.31 28.94 35.94 12.02 0 0 9.76 7.71 17 2.48-1.44-8.05-3.16-16.08-4.85-24.09z" class="color131e44 svgShape"/><path fill="#53d86a" d="M771.35 373.49s-5.42-31.1 24.93-40.79c0 .01-52.81-.74-24.93 40.79zM818.42 354.88s-1.85 48.98 15.64 43.81c17.48-5.16 39.76-10.43 39.76-10.43l-18.24 30.13 36.43-16.76s-12.15 15.61-5.24 24.42c6.9 8.81 51.18.52 51.18.52s-35.4-10.45-32.34-16.91c3.06-6.46 11.56-27.75 4.15-30.47-7.41-2.72-24.01-1.09-24.01-1.09s-10.21-15.79-15.68-15.34c-9.84.8-24.56 33.46-34.46 19.28-9.88-14.2-17.19-27.16-17.19-27.16z" opacity=".1" class="colorf4f2f3 svgShape"/><path fill="#ffa545" d="M765.46 656.99c-.61-.35 19.9-14.18 24.41-10.8 4.5 3.39 26.02 82.02 68.57 86.59 42.55 4.57 62.86-71.21 69.31-73.74 6.45-2.53 23.62 7.25 23.62 7.25s-22.01 96.11-88.07 92.8c-70.82-3.55-97.84-102.1-97.84-102.1z" class="colorffe245 svgShape"/><path fill="#17197a" d="M927.75 659.04c-3.8 1.49-12.4 28.32-27.5 49.24 1.45-.25 2.87-.61 4.05-1.12 3.45-1.48 6.66-3.55 9.98-5.3 3.96-2.09 11.72-6.63 15.16-1.43 2.72 4.11-.94 8.76-3.81 11.61-4.67 4.64-10.27 8.32-15.79 11.87-4.15 2.67-8.81 5.01-12.56 8.24-.32.28.22-.19-.06.07-.46.42-.92.85-1.32 1.32-.68.8-1.12 1.66-1.39 2.67-.47 1.69-.49 3.47-.96 5.16-1.2 4.3-3.96 7.59-7.92 9.6-4.07 2.06-8.7 2.74-13.15 3.51-3.92.68-7.72.81-11.68.31-8.05-1-15.77-4.1-23.87-4.67-1.71-.12-3.47-.06-5.15.27 9.37 4.89 19.85 8.1 31.53 8.69 66.07 3.31 88.07-92.8 88.07-92.8s-17.17-9.77-23.63-7.24z" enable-background="new" opacity=".2" class="color7a1752 svgShape"/><path fill="#ffd6aa" d="M437.59 1007.39c1.73 8.21 4.33 15.89 7.28 22.83 9.07 21.38 21.56 35.6 21.56 35.6s55.47 42.52 90.73-9.48c.12-.23 13.14-39.78 25.2-50.51 15.99-14.23 57.62-44.62 51.44-56.29-6.24-11.67-41.09-6.42-52.01 7.63-10.92 13.99-23.35 4.05-23.35-12.89 0-26.12 26.35-147.2 8.44-149.97-17.92-2.77-43.58 117.26-43.58 117.26s6.24-140.96-12.48-134.54c-18.67 6.42-21.04 136.1-21.04 136.1s-3.87-102.81-21.79-106.69c-17.92-3.93-16.3 114.49-16.3 114.49s-12.54-72.47-28.9-74.79c-16.35-2.3 7.81 127.73 14.8 161.25z" class="colorffafaa svgShape"/><path fill="#ddb58a" d="M536.09 1070.69c-10.12 6.72-22.93 7.8-34.71 6.12-11.68-1.67-23.52-6.27-32.09-14.59-2.54-2.47-4.54-5.23-6.29-8.16 1.43 1.3 2.87 2.52 4.36 3.55 18.15 12.71 39.47.69 39.47.69 4.24 2.97 24.42 3.95 41.32.46-3.67 4.32-7.28 8.75-12.06 11.93zM443.57 926.92c7.06-2.64 14.14-5.14 21.32-7.22 7.17-2.06 14.43-3.94 21.77-4.46 7.39-.66 14.92-.67 22.38-.52 7.47.21 14.96.72 22.37 2.05-7.15-2.47-14.72-3.57-22.25-4.23-7.56-.66-15.12-.59-22.73-.16-7.68.72-15.07 2.7-22.22 5.19-7.14 2.56-14.09 5.6-20.64 9.35z" class="colordd8a8a svgShape"/></g></svg>