<svg xmlns="http://www.w3.org/2000/svg" viewBox="0 0 1364 960"><ellipse cx="683.534" cy="866.732" fill="#167ffc" rx="451.799" ry="42.268" class="colorE6EBFF svgShape"/><linearGradient id="a" x1="465.4" x2="293.293" y1="388.557" y2="327.95" gradientTransform="rotate(-4.905 985.784 -185.612)" gradientUnits="userSpaceOnUse"><stop offset="0" stop-color="#abacff" class="stopColorabdcff svgShape"/><stop offset="1" stop-color="#7375ff" class="stopColor73b2ff svgShape"/></linearGradient><path fill="url(#a)" d="m529.286 450.007-3.454 7.633c-3.347-6.913-6.73-13.898-11.527-19.897-14.258-17.825-38.544-24.181-61.323-25.662-22.771-1.49-45.986.771-68.192-4.517-6.298-1.495-13.359-4.521-14.918-10.802a10.568 10.568 0 0 1-.187-3.922c9.972-2.365 20.064-4.18 30.264-5.23 15.86-1.635 32.001-1.425 47.701 1.561 12.928 2.464 25.51 6.863 37.051 13.211 11.38 6.25 21.767 14.446 30.041 24.484 4.286 5.2 7.811 10.866 11.038 16.77 1.163 2.123 2.302 4.257 3.506 6.371z"/><linearGradient id="b" x1="470.126" x2="298.019" y1="375.136" y2="314.53" gradientTransform="rotate(-4.905 985.784 -185.612)" gradientUnits="userSpaceOnUse"><stop offset="0" stop-color="#abacff" class="stopColorabdcff svgShape"/><stop offset="1" stop-color="#7375ff" class="stopColor73b2ff svgShape"/></linearGradient><path fill="url(#b)" d="m534.379 438.739-4.676 10.344-.417.924c-1.204-2.114-2.343-4.248-3.506-6.372-3.227-5.904-6.752-11.57-11.038-16.77-8.275-10.038-18.662-18.234-30.041-24.484-11.541-6.348-24.123-10.747-37.051-13.211-15.701-2.986-31.841-3.195-47.701-1.561-10.199 1.05-20.291 2.865-30.264 5.23.033-.297.083-.594.149-.885.501-2.55 1.777-5.019 3.316-7.15 7.605-10.552 21.018-15.191 33.878-17.18 40.18-6.216 83.046 8.958 110.384 39.06 8.248 9.09 15.327 19.889 16.967 32.055z"/><path fill="#ffffff" d="m529.703 449.083-.417.924c-1.204-2.114-2.343-4.248-3.506-6.372-3.227-5.904-6.752-11.57-11.038-16.77-8.275-10.038-18.662-18.234-30.041-24.484-11.541-6.348-24.123-10.747-37.051-13.211-15.701-2.986-31.841-3.195-47.701-1.561-10.199 1.05-20.291 2.865-30.264 5.23.033-.297.083-.594.149-.885 11.793-2.775 23.767-4.781 35.851-5.671 15.584-1.153 31.424-.435 46.692 3.041 12.805 2.913 25.214 7.739 36.482 14.503 11.132 6.673 21.156 15.281 28.991 25.655 4.165 5.525 7.431 11.558 10.748 17.605.361.668.733 1.328 1.105 1.996z" class="colorFFF svgShape"/><linearGradient id="c" x1="802.806" x2="630.7" y1="546.364" y2="485.757" gradientTransform="rotate(23.165 999.078 -227.902)" gradientUnits="userSpaceOnUse"><stop offset="0" stop-color="#abacff" class="stopColorabdcff svgShape"/><stop offset="1" stop-color="#7375ff" class="stopColor73b2ff svgShape"/></linearGradient><path fill="url(#c)" d="m516.413 429.616-6.64 5.109c.3-7.675.602-15.43-.807-22.981-4.192-22.437-22.63-39.475-42.031-51.501-19.391-12.03-40.939-20.96-58.043-36.077-4.854-4.283-9.659-10.276-8.08-16.552a10.544 10.544 0 0 1 1.681-3.548c9.912 2.606 19.671 5.754 29.164 9.627 14.764 6.022 28.906 13.802 41.354 23.825 10.248 8.258 19.279 18.061 26.475 29.093 7.1 10.87 12.408 22.989 14.985 35.741 1.335 6.605 1.779 13.264 1.848 19.991.025 2.423.026 4.842.094 7.273z"/><linearGradient id="d" x1="807.532" x2="635.426" y1="532.943" y2="472.337" gradientTransform="rotate(23.165 999.078 -227.902)" gradientUnits="userSpaceOnUse"><stop offset="0" stop-color="#abacff" class="stopColorabdcff svgShape"/><stop offset="1" stop-color="#7375ff" class="stopColor73b2ff svgShape"/></linearGradient><path fill="url(#d)" d="m526.209 422.071-8.994 6.927-.802.619c-.067-2.432-.068-4.851-.095-7.272-.069-6.728-.513-13.386-1.848-19.991-2.577-12.752-7.885-24.871-14.985-35.741-7.196-11.032-16.227-20.835-26.475-29.093-12.448-10.023-26.591-17.804-41.354-23.825-9.493-3.873-19.252-7.021-29.164-9.627.169-.246.353-.486.548-.711 1.642-2.014 3.93-3.592 6.291-4.748 11.676-5.731 25.694-3.513 37.977.784 38.378 13.424 69.06 46.985 79.015 86.411 3 11.901 4.164 24.76-.114 36.267z"/><path fill="#ffffff" d="m517.215 428.998-.802.619c-.067-2.432-.068-4.851-.095-7.272-.069-6.728-.513-13.386-1.848-19.991-2.577-12.752-7.885-24.871-14.985-35.741-7.196-11.032-16.227-20.835-26.475-29.093-12.448-10.023-26.591-17.804-41.354-23.825-9.493-3.873-19.252-7.021-29.164-9.627.169-.246.353-.486.548-.711 11.711 3.102 23.221 6.966 34.302 11.867 14.293 6.316 27.932 14.404 39.767 24.656 9.928 8.596 18.605 18.694 25.364 29.965 6.682 11.126 11.476 23.44 13.507 36.279 1.074 6.835 1.118 13.695 1.198 20.591.006.761.023 1.518.037 2.283z" class="colorFFF svgShape"/><linearGradient id="e" x1="1909.872" x2="1766.348" y1="782.945" y2="732.404" gradientTransform="scale(-1 1) rotate(-17.757 -115.64 9662.772)" gradientUnits="userSpaceOnUse"><stop offset="0" stop-color="#abacff" class="stopColorabdcff svgShape"/><stop offset="1" stop-color="#7375ff" class="stopColor73b2ff svgShape"/></linearGradient><path fill="url(#e)" d="m880.984 601.451 1.393 6.846c4.003-5 8.049-10.051 13.062-14.039 14.898-11.848 35.823-12.512 54.617-9.492 18.79 3.012 37.246 9.156 56.281 8.974 5.398-.047 11.7-1.199 14.133-6.016.498-1 .78-2.061.879-3.154-7.669-3.772-15.538-7.12-23.636-9.865-12.592-4.27-25.754-7.093-39.073-7.577-10.968-.394-22.014.849-32.574 3.87-10.411 2.971-20.376 7.708-28.966 14.335-4.449 3.433-8.366 7.386-12.085 11.587-1.338 1.512-2.66 3.036-4.031 4.531z"/><linearGradient id="f" x1="1913.813" x2="1770.289" y1="771.754" y2="721.212" gradientTransform="scale(-1 1) rotate(-17.757 -115.64 9662.772)" gradientUnits="userSpaceOnUse"><stop offset="0" stop-color="#abacff" class="stopColorabdcff svgShape"/><stop offset="1" stop-color="#7375ff" class="stopColor73b2ff svgShape"/></linearGradient><path fill="url(#f)" d="m878.934 591.345 1.883 9.278.168.828c1.371-1.495 2.693-3.019 4.032-4.531 3.718-4.202 7.635-8.155 12.085-11.587 8.589-6.627 18.554-11.364 28.966-14.335 10.56-3.021 21.606-4.264 32.574-3.87 13.319.484 26.481 3.307 39.073 7.577 8.097 2.745 15.966 6.093 23.636 9.865.028-.247.043-.499.043-.747.065-2.166-.514-4.41-1.37-6.428-4.226-9.989-14.271-16.249-24.358-20.251-31.515-12.505-69.181-8.118-96.991 11.286-8.394 5.861-16.152 13.328-19.741 22.915z"/><path fill="#ffffff" d="m880.817 600.623.168.828c1.371-1.495 2.693-3.019 4.032-4.531 3.718-4.202 7.635-8.155 12.085-11.587 8.589-6.627 18.554-11.364 28.966-14.335 10.56-3.021 21.606-4.264 32.574-3.87 13.319.484 26.481 3.307 39.073 7.577 8.097 2.745 15.966 6.093 23.636 9.865.028-.247.043-.499.043-.747-9.074-4.443-18.437-8.295-28.096-11.26-12.456-3.827-25.468-6.182-38.526-6.187-10.951-.007-21.935 1.616-32.351 5.026-10.288 3.361-20.035 8.501-28.328 15.482-4.411 3.72-8.185 8.019-12.003 12.32-.422.477-.847.945-1.273 1.419z" class="colorFFF svgShape"/><linearGradient id="g" x1="2262.8" x2="2119.276" y1="211.575" y2="161.033" gradientTransform="scale(-1 1) rotate(10.318 -1262.067 -17142.37)" gradientUnits="userSpaceOnUse"><stop offset="0" stop-color="#abacff" class="stopColorabdcff svgShape"/><stop offset="1" stop-color="#7375ff" class="stopColor73b2ff svgShape"/></linearGradient><path fill="url(#g)" d="m896.102 580.446 4.451 5.385c1.179-6.296 2.372-12.657 4.918-18.535 7.569-17.465 25.72-27.898 43.724-34.078 17.996-6.185 37.172-9.449 53.882-18.568 4.741-2.582 9.759-6.563 9.639-11.959a8.824 8.824 0 0 0-.708-3.197c-8.542.281-17.06 1.03-25.497 2.419-13.12 2.158-26.062 5.861-38.041 11.702-9.863 4.814-19.024 11.109-26.92 18.744-7.788 7.521-14.351 16.39-18.812 26.28-2.31 5.123-3.906 10.454-5.21 15.911-.471 1.965-.921 3.931-1.426 5.896z"/><linearGradient id="h" x1="2266.742" x2="2123.217" y1="200.383" y2="149.842" gradientTransform="scale(-1 1) rotate(10.318 -1262.067 -17142.37)" gradientUnits="userSpaceOnUse"><stop offset="0" stop-color="#abacff" class="stopColorabdcff svgShape"/><stop offset="1" stop-color="#7375ff" class="stopColor73b2ff svgShape"/></linearGradient><path fill="url(#h)" d="m889.536 572.494 6.028 7.3.538.652c.506-1.965.955-3.931 1.426-5.895 1.304-5.457 2.899-10.789 5.21-15.911 4.46-9.89 11.023-18.759 18.812-26.28 7.896-7.635 17.057-13.93 26.92-18.744 11.98-5.841 24.921-9.544 38.041-11.702 8.437-1.388 16.955-2.138 25.497-2.419a6.953 6.953 0 0 0-.313-.679c-.962-1.942-2.529-3.65-4.234-5.027-8.43-6.825-20.239-7.621-31.022-6.406-33.692 3.797-64.862 25.394-80.268 55.602-4.648 9.121-7.979 19.36-6.635 29.509z"/><path fill="#ffffff" d="m895.564 579.794.538.652c.506-1.965.955-3.931 1.426-5.895 1.304-5.457 2.899-10.789 5.21-15.911 4.46-9.89 11.023-18.759 18.812-26.28 7.896-7.635 17.057-13.93 26.92-18.744 11.98-5.841 24.921-9.544 38.041-11.702 8.437-1.388 16.955-2.138 25.497-2.419a6.953 6.953 0 0 0-.313-.679c-10.097.35-20.172 1.358-30.09 3.287-12.792 2.485-25.381 6.531-36.905 12.672-9.666 5.148-18.594 11.749-26.18 19.659-7.496 7.807-13.677 16.929-17.71 26.992-2.141 5.358-3.448 10.928-4.793 16.519-.146.618-.3 1.23-.453 1.849z" class="colorFFF svgShape"/><linearGradient id="i" x1="1067.639" x2="1143.072" y1="732.738" y2="943.952" gradientTransform="rotate(13.999 1457.52 138.557)" gradientUnits="userSpaceOnUse"><stop offset=".189" stop-color="#ffb669" class="stopColorffbe69 svgShape"/><stop offset="1" stop-color="#ffb05c" class="stopColorff8f5c svgShape"/></linearGradient><path fill="url(#i)" d="M984.033 833.089c.142-1.532 1.228-2.806 2.745-3.063l9.781-1.66a6.627 6.627 0 0 0 5.356-7.992c-.785-3.502-4.406-5.613-7.944-5.013l-8.779 1.49a3.312 3.312 0 0 1-3.82-2.712l-3.328-19.604a3.312 3.312 0 0 1 2.712-3.82l9.148-1.553a6.628 6.628 0 0 0 5.356-7.993c-.785-3.502-4.406-5.613-7.944-5.012l-8.779 1.49a3.312 3.312 0 0 1-3.82-2.712l-12.429-73.221c-1.596-9.401.847-19.21 7.245-26.281 8.892-9.827 13.363-23.468 10.972-37.55-4.429-26.095-30.575-43.074-56.766-35.553-20.112 5.775-33.704 25.309-32.182 46.178 1.178 16.156 10.532 29.329 23.435 36.295 8.202 4.428 13.698 12.62 15.258 21.809l21.571 127.083c1.444 8.507 9.106 14.889 17.69 14.013 7.959-.813 13.83-7.139 14.522-14.619zm-47.268-184.943c-10.299 1.748-20.084-5.177-21.832-15.476-1.748-10.299 5.2-20.088 15.499-21.836 10.299-1.748 20.065 5.204 21.813 15.503 1.749 10.299-5.18 20.06-15.48 21.809z"/><path fill="#ffffff" d="M851.409 845.948H558.81c-29.89 0-54.12-24.231-54.12-54.12V196.703h400.84v595.124c-.001 29.89-24.232 54.121-54.121 54.121z" class="colorFFF svgShape"/><linearGradient id="j" x1="705.109" x2="705.109" y1="32.938" y2="1008" gradientUnits="userSpaceOnUse"><stop offset="0" stop-color="#abacff" class="stopColorabdcff svgShape"/><stop offset="1" stop-color="#7375ff" class="stopColor73b2ff svgShape"/></linearGradient><path fill="url(#j)" d="M871.442 142.035H538.755c-22.592 0-40.895 18.304-40.895 40.891v623.971c0 12.321 5.468 23.391 14.11 30.893.29.243.579.491.869.737 7.055 5.803 16.094 9.261 25.916 9.261h332.687c9.821 0 18.863-3.458 25.916-9.261 9.153-7.502 15-18.888 15-31.63V182.926c0-22.587-18.326-40.891-40.916-40.891zM903.69 790.96c0 23.716-20.33 42.939-45.41 42.939H551.939c-25.079 0-45.411-19.223-45.411-42.939V223.406c0-14.75 12.646-26.703 28.244-26.703h340.677c15.598 0 28.241 11.953 28.241 26.703V790.96z"/><path fill="#ffffff" d="M563.798 170.682c0 7.26-5.896 13.156-13.159 13.156-7.263 0-13.159-5.896-13.159-13.156 0-7.266 5.896-13.162 13.159-13.162 7.263 0 13.159 5.896 13.159 13.162z" class="colorFFF svgShape"/><linearGradient id="k" x1="550.638" x2="550.638" y1="32.938" y2="1008" gradientUnits="userSpaceOnUse"><stop offset="0" stop-color="#abacff" class="stopColorabdcff svgShape"/><stop offset="1" stop-color="#7375ff" class="stopColor73b2ff svgShape"/></linearGradient><path fill="url(#k)" d="M559.541 170.681c0 4.913-3.988 8.902-8.902 8.902-4.913 0-8.904-3.989-8.904-8.902 0-4.915 3.99-8.904 8.904-8.904 4.915 0 8.902 3.989 8.902 8.904z"/><path fill="#ffffff" d="M590.735 170.681c0 4.913-3.989 8.902-8.904 8.902s-8.902-3.989-8.902-8.902c0-4.915 3.988-8.904 8.902-8.904 4.915 0 8.904 3.989 8.904 8.904z" class="colorFFF svgShape"/><linearGradient id="l" x1="561.203" x2="561.203" y1="32.938" y2="1008" gradientUnits="userSpaceOnUse"><stop offset="0" stop-color="#abacff" class="stopColorabdcff svgShape"/><stop offset="1" stop-color="#7375ff" class="stopColor73b2ff svgShape"/></linearGradient><path fill="url(#l)" d="M587.722 233.15h-53.039a2.898 2.898 0 0 1-2.898-2.898v-.543a2.898 2.898 0 0 1 2.898-2.898h53.038a2.9 2.9 0 0 1 2.899 2.899v.543a2.897 2.897 0 0 1-2.898 2.897z"/><linearGradient id="m" x1="561.203" x2="561.203" y1="32.938" y2="1008" gradientUnits="userSpaceOnUse"><stop offset="0" stop-color="#abacff" class="stopColorabdcff svgShape"/><stop offset="1" stop-color="#7375ff" class="stopColor73b2ff svgShape"/></linearGradient><path fill="url(#m)" d="M587.722 250.395h-53.039a2.898 2.898 0 0 1-2.898-2.898v-.543a2.9 2.9 0 0 1 2.899-2.899h53.038a2.9 2.9 0 0 1 2.899 2.899v.543a2.898 2.898 0 0 1-2.899 2.898z"/><linearGradient id="n" x1="561.203" x2="561.203" y1="32.938" y2="1008" gradientUnits="userSpaceOnUse"><stop offset="0" stop-color="#abacff" class="stopColorabdcff svgShape"/><stop offset="1" stop-color="#7375ff" class="stopColor73b2ff svgShape"/></linearGradient><path fill="url(#n)" d="M587.722 267.64h-53.039a2.898 2.898 0 0 1-2.898-2.898v-.543a2.898 2.898 0 0 1 2.898-2.898h53.038a2.9 2.9 0 0 1 2.899 2.899v.543a2.897 2.897 0 0 1-2.898 2.897z"/><linearGradient id="o" x1="825.326" x2="622.343" y1="351.366" y2="588.374" gradientUnits="userSpaceOnUse"><stop offset=".189" stop-color="#ffb669" class="stopColorffbe69 svgShape"/><stop offset="1" stop-color="#ffb05c" class="stopColorff8f5c svgShape"/></linearGradient><path fill="url(#o)" d="M567.175 409.792 700.4 307.844c5.429-4.154 13.415-4.157 18.848-.008l133.486 101.955c3.244 2.477 5.112 6.106 5.112 9.928v132.709c0 7.201-6.506 13.038-14.531 13.038H576.604c-8.025 0-14.531-5.837-14.531-13.038V419.712c0-3.817 1.865-7.443 5.102-9.92z"/><path fill="#ffffff" d="M641.103 503.889h137.434a2.419 2.419 0 0 0 2.419-2.419V330.471a2.419 2.419 0 0 0-2.419-2.419H668.902c-.642 0-1.257.255-1.711.708l-27.799 27.792a2.419 2.419 0 0 0-.709 1.711V501.47a2.42 2.42 0 0 0 2.42 2.419z" class="colorFFF svgShape"/><path fill="#cecff0" d="m638.684 357.261 29.217-29.209v29.209z" class="colorCED4F0 svgShape"/><linearGradient id="p" x1="663.964" x2="797.134" y1="418.354" y2="612.537" gradientUnits="userSpaceOnUse"><stop offset=".189" stop-color="#ffb669" class="stopColorffbe69 svgShape"/><stop offset="1" stop-color="#ffb05c" class="stopColorff8f5c svgShape"/></linearGradient><path fill="url(#p)" d="M857.846 411.269v147.934c0 2.722-1.272 5.176-3.312 6.912-.227.195-.466.38-.711.556-1.812 1.291-4.106 2.061-6.597 2.061h-274.81c-2.49 0-4.786-.77-6.595-2.061a9.235 9.235 0 0 1-.575-.443c-2.12-1.74-3.449-4.242-3.449-7.026V409.64c0-7.714 9.683-12.233 16.721-7.802l106.467 66.992 6.501 4.091.063.04 3.961 2.492 8.275 5.208c3.629 2.284 8.461 2.305 12.116.05l8.371-5.164 4.141-2.557 2.022-1.247 4.599-2.836 106.173-65.491c7.048-4.347 16.639.181 16.639 7.853z"/><path fill="#f7dec3" d="m735.031 468.907-4.599 2.836-2.022 1.247 117.699 95.743h1.115c2.492 0 4.786-.77 6.597-2.061.245-.176.485-.361.711-.556l-119.501-97.209zm-50.048-.077-119.739 97.399c.185.155.378.302.575.443 1.809 1.291 4.106 2.061 6.595 2.061h1.394l117.739-95.772-.063-.04-6.501-4.091z" class="colorF7E4C3 svgShape"/><linearGradient id="q" x1="429.769" x2="444.136" y1="723.66" y2="723.66" gradientUnits="userSpaceOnUse"><stop offset="0" stop-color="#3234b3" class="stopColor326ab3 svgShape"/><stop offset="1" stop-color="#000280" class="stopColor003780 svgShape"/></linearGradient><path fill="url(#q)" d="M431.714 706.39c.1-.12.266.051.171.17-3.659 4.565-.898 10.698 1.132 15.283 1.07 2.418 1.441 4.962 1.72 7.569.263 2.463.548 5.284 2.21 7.266 1.737 2.071 4.65 2.998 7.075 3.963.194.077.123.381-.089.321-2.386-.673-4.808-1.519-6.823-3.01-.965-.714-1.922-1.469-2.542-2.511-.716-1.203-1.077-2.459-1.269-3.837-.2-1.437-.217-2.883-.32-4.328-.116-1.619-.507-3.123-.884-4.693-.677-2.824-1.828-5.552-2.205-8.442-.354-2.725.011-5.586 1.824-7.751z"/><linearGradient id="r" x1="421.49" x2="439.445" y1="684.753" y2="684.753" gradientUnits="userSpaceOnUse"><stop offset="0" stop-color="#3234b3" class="stopColor326ab3 svgShape"/><stop offset="1" stop-color="#000280" class="stopColor003780 svgShape"/></linearGradient><path fill="url(#r)" d="M422.606 676.885c1.174-2.301 3.152-4.085 5.588-4.944 3.628-1.278 7.392-.918 11.13-.43.157.021.164.268 0 .253-3.116-.302-6.339-.641-9.41.162-2.546.666-5.103 2.408-6.081 4.935a13.638 13.638 0 0 0-.787 6.829c.362 2.559 1.535 4.944 2.654 7.241 1.379 2.83 3.948 5.068 6.041 7.377.069.076-.037.184-.114.114a61.137 61.137 0 0 1-3.305-3.295c-1.052-1.132-1.986-2.368-3.035-3.497-1.935-2.082-3.177-4.577-3.613-7.39-.381-2.461-.216-5.106.932-7.355z"/><path fill="#1f207a" d="M431.714 698.688c-9.002 18.235 3.379 17.954 3.914 30.866.76 18.33 24.313 9.117 29.009 8.988 4.696-.13 11.639-3.099 17.338-10.317 5.698-7.218 14.596-6.174 13.486-15.765a18.213 18.213 0 0 0-.677-3.252c.559-3.938-1.065-7.798-3.511-10.844-2.456-3.057-6.554-4.248-8.681-7.617-2.049-3.247-2.313-7.238-3.919-10.683-1.646-3.531-4.677-6.672-7.69-9.07-2.094-1.666-4.365-3.07-6.695-4.375-3.153-2.139-6.299-3.419-8.588-3.671-11.517-1.266-13.55 4.052-17.158 6.142-3.609 2.09-10.89-.506-14.214 7.851-3.325 8.356 7.386 21.747 7.386 21.747zm35.463-29.853c1.627 1.114 3.189 2.316 4.626 3.674 1.444 1.364 2.71 2.849 3.716 4.562 1.003 1.708 1.616 3.524 2.153 5.425.969 3.427 1.486 7.188 3.687 10.108 2.275 3.018 5.829 4.356 8.781 6.541 2.95 2.183 4.25 5.762 4.408 9.334-3.894-10.872-17.226-10.258-18.083-22.421-.509-7.254-4.604-13.18-9.288-17.223z" class="color1F367A svgShape"/><linearGradient id="s" x1="404.788" x2="468.028" y1="816.183" y2="781.114" gradientUnits="userSpaceOnUse"><stop offset=".189" stop-color="#ffb669" class="stopColorffbe69 svgShape"/><stop offset="1" stop-color="#ffb05c" class="stopColorff8f5c svgShape"/></linearGradient><path fill="url(#s)" d="M378.347 831.193s2.393 19.14 2.393 20.168c0 .345 8.061.903 19.229 1.167 22.356.521 57.164-.169 64.756-6.307 12.43-10.036 9.802-45.726 6.321-70.013-1.946-13.568-4.155-23.575-4.155-23.575-2.313-15.653 3.407-37.04-14.185-26.409-23.817 19.713-8.487 92.45-15.623 95.908-1.769.853-46.262 6.785-58.736 9.061z"/><path fill="#f9e3cb" d="M909.338 803.956c-1.575 7.07-28.206-13.089-40.343-10.599-6.641 1.374-19.72 9.701-27.85 12.937-35.037 13.882-80.722 41.02-111.609 47.001-41.563 8.016-169.345-1.201-169.345-1.201l-7.728-43.024s41.726-29.411 74.816-22.227c33.091 7.214 82.449 35.079 104.347 21.683 14.341-8.76 67.325-21.354 102.735-26.049 6.555-.858 12.509-1.459 17.49-1.717 0 0 5.66-17.767 12.016-19.198 8.472-1.89 14.004 9.237 24.71 18.654 12.394 10.878 22.822 14.437 20.761 23.74z" class="colorF9CBCB svgShape"/><linearGradient id="t" x1="552.465" x2="845.081" y1="817.116" y2="817.116" gradientUnits="userSpaceOnUse"><stop offset="0" stop-color="#3234b3" class="stopColor326ab3 svgShape"/><stop offset="1" stop-color="#000280" class="stopColor003780 svgShape"/></linearGradient><path fill="url(#t)" d="m552.465 809.072 7.731 43.024s72.774 5.249 126.348 4.368c17.415-.279 32.797-1.204 42.995-3.172a143.39 143.39 0 0 0 8.869-2.026c28.399-7.349 68.993-24.897 100.079-37.525 5.198-2.114 7.841-7.922 6.02-13.237l-3.245-9.471-2.122-6.204c-1.512-4.42-5.748-7.349-10.418-7.151-42.312 1.85-88.06 17.724-101.554 25.968-8.979 5.492-23.494 4.163-39.28.345-22.701-5.484-48.038-16.13-63.339-19.015-26.645-5.03-72.084 24.096-72.084 24.096z"/><path fill="#53d86a" d="m681.199 815.863 5.345 40.601c17.415-.279 32.797-1.204 42.995-3.172a143.39 143.39 0 0 0 8.869-2.026c.823-.741 14.038-17.4 17.489-33.105 3.443-15.705-4.604-19.346 11.681-20.11 16.277-.771 29.111-15.984 41.563-14.5 10.139 1.204 25.755 10.962 32.121 7.482l-2.122-6.204c-1.512-4.42-5.748-7.349-10.418-7.151-42.312 1.85-88.06 17.724-101.554 25.968-8.979 5.492-23.494 4.163-39.28.345-3.591 6.388-6.689 11.872-6.689 11.872z" class="colorE6E7E8 svgShape"/><path fill="#f9e3cb" d="M725.902 848.286c-35.037 17.348-120.742-1.761-165.254 3.304-1.745-15.629-1.842-24.803-2.585-40.002 18.891-11.25 35.707-28.395 60.439-26.677 24.732 1.688 79.491 33.262 79.32 7.499-.343-44.741 3.149-72.993 19.122-110.95a376.128 376.128 0 0 1 7.985-17.748c2.548-5.323-8.873-11.593-7.671-17.375.773-3.721 10.562-6.297 17.719-10.218 12.051-6.613 30.513-8.566 36.81-4.588 6.04 3.807-23.386 15.316-29.512 28.426-1.803 4.867-2.089 16.322-2.404 24.708-1.919 49.494 16.001 148.766-13.969 163.621z" class="colorF9CBCB svgShape"/><linearGradient id="u" x1="776.78" x2="541.834" y1="748.451" y2="825.106" gradientUnits="userSpaceOnUse"><stop offset="0" stop-color="#3234b3" class="stopColor326ab3 svgShape"/><stop offset="1" stop-color="#000280" class="stopColor003780 svgShape"/></linearGradient><path fill="url(#u)" d="M552.244 808.536c.345 7.034 1.586 13.568 2.996 20.102 1.63 7.584 3.487 15.176 4.427 23.575 27.195 1.6 122.302 13.605 162.874.756 2.672-.852 5.103-1.799 7.268-2.871 27.878-13.825 19.889-102.245 20.183-154.351.037-6.321-4.699-11.644-10.976-12.386l-18.494-2.173a11.755 11.755 0 0 0-.896-.073c-5.396-.242-10.404 3.032-12.232 8.179-11.997 33.714-9.89 62.062-9.574 103.118.117 18.179-26.651 7.188-51.115-1.446-10.205-3.605-20.007-6.799-27.283-7.298-24.734-1.717-48.287 13.613-67.178 24.868z"/><path fill="#53d86a" d="M555.24 828.638c1.63 7.584 3.487 15.176 4.427 23.575 27.195 1.6 122.302 13.605 162.874.756-29.324 1.402-74.289 3.304-94.396-7.041-14.649-7.537-29.995-3-43.551 2.322-14.502 5.693-16.173-39.12-28.542-42.512l-.812 22.9z" class="colorE6E7E8 svgShape"/><linearGradient id="v" x1="440.222" x2="563.468" y1="787.538" y2="787.538" gradientUnits="userSpaceOnUse"><stop offset=".189" stop-color="#ffb669" class="stopColorffbe69 svgShape"/><stop offset="1" stop-color="#ffb05c" class="stopColorff8f5c svgShape"/></linearGradient><path fill="url(#v)" d="M451.473 806.568c.404.58.815 1.16 1.233 1.725 12.658 17.334 29.515 27.929 46.108 34.368a134.24 134.24 0 0 0 10.044 3.436c27.246 8.127 51.247 6.145 51.247 6.145 2.217-5.94 3.385-12.07 3.363-18.428-.029-8.906-2.372-18.238-7.415-28.076 0 0-11.226-19.706-24.926-39.316-4.383-6.27-9.016-12.533-13.612-18.135-7.577-9.236-14.205-18.155-20.431-20.647-16.22-6.492-29.803-4.83-29.803-4.83l-19.309 7.511c-11.278 26.153-10.36 56.35 3.501 76.247z"/><path fill="#ffeddb" d="M452.707 808.293c12.658 17.334 29.515 27.929 46.108 34.368a134.24 134.24 0 0 0 10.044 3.436c-.308-4.104-.698-9.405-1.498-14.911-1.344-9.2-16.857-63.589-16.857-63.589l-17.224-1.77s-4.802 27.239-.778 36.049c4.023 8.811 8.238 19.919 2.298 20.881-4.127.661-14.45-8.935-22.093-14.464z" class="colorFFE8DB svgShape"/><path fill="#ffeddb" d="M498.814 842.661c31.101 12.078 61.291 9.581 61.291 9.581 2.217-5.94 3.385-12.07 3.363-18.428-17.393 1.292-21.108 8.194-29.148 7.9-8.047-.286-7.188-10.917-4.457-22.547 2.731-11.637-2.584-26.431.72-41.497.954-4.368.984-8.12.543-11.248-4.383-6.27-9.016-12.533-13.612-18.135-5.316 5.022-10.095 9.618-10.345 10.117-.514 1.021-6.967 69.485-8.355 84.257z" class="colorFFE8DB svgShape"/><path fill="#f9e3cb" d="M467.299 722.816c-.619 25.321-16.63 27.03-19.343 7.507l-2.31-7.976-4.547-15.734-.614-2.166 13.461-5.665 3.572 6.388 4.332 7.867 5.449 9.779z" class="colorF9CBCB svgShape"/><path fill="#f9dcbd" d="M461.851 713.037c-1.697 1.913-3.754 4.006-5.522 5.341-3.788 2.851-10.646 3.969-10.646 3.969h-.036l-4.547-15.734 5.918-2.563 10.501 1.119 4.332 7.868z" class="colorF9BDBD svgShape"/><path fill="#f9e3cb" d="M429.57 684.477s-4.872 35.139 12.945 34.755c17.816-.385 21.836-19.376 21.836-19.376s7.493-5.233 4.673-10.359c-2.82-5.128-6.888 1.409-6.888 1.409s-16.633-3.588-20.286-15.509c-1.931 5.068-9.773.8-12.28 9.08z" class="colorF9CBCB svgShape"/><path fill="#1f207a" d="M429.147 688.986c.911-.772 6.102-.579 6.679-8.462 0 0 2.787 7.021 9.324 9.517 0 0-1.134-6.226 1.078-8.148 0 0 1.903 6.515 6.709 11.417 4.807 4.903 5.115 12.689 4.865 14.516 0 0 6.365-11.891 3.682-21.855-2.683-9.965-8.259-11.888-8.259-11.888s-16.268-4.741-22.347 4.377c-3.655 5.484-1.731 10.526-1.731 10.526zM913.661 799.291c-.905-1.073-2.864-3.078-5.478-5.632l-.509-.497-.384-.372a532.909 532.909 0 0 0-8.867-8.384l-.234-.217a650.784 650.784 0 0 0-5.326-4.873l-.575-.52a600.735 600.735 0 0 0-5.293-4.727l-.673-.593a719.63 719.63 0 0 0-2.224-1.946c-.144-.124-.289-.252-.432-.376a422.42 422.42 0 0 0-2.458-2.114c-.237-.203-.469-.399-.704-.598a372.648 372.648 0 0 0-2.491-2.097 257.842 257.842 0 0 0-2.227-1.832c-.198-.161-.389-.314-.583-.47-.569-.459-1.123-.901-1.662-1.325-.189-.149-.382-.302-.568-.446a115.941 115.941 0 0 0-1.91-1.46c-.131-.098-.25-.183-.378-.277a67.966 67.966 0 0 0-1.406-1.013c-.152-.107-.305-.215-.451-.314a36.579 36.579 0 0 0-1.46-.958c-.061-.037-.111-.063-.169-.099a15.106 15.106 0 0 0-1.044-.578 5.893 5.893 0 0 0-.282-.135c-.335-.153-.64-.274-.874-.319-1.499-.291-3.227 1.244-4.958 3.677l-.007.008c-4.934 6.936-9.522 20.032-9.522 20.032 2.812 1.769 4.514-.314 9.784 3.221 1.902 1.278 2.812 2.964 3.2 4.598.647 2.737 3.102 4.874 5.921 5.35 1.036.174 2.174.422 3.395.751.55.144 1.113.307 1.694.49 1.051.324 2.155.706 3.295 1.148.529.205 1.067.421 1.61.656a56.577 56.577 0 0 1 3.967 1.864c.574.3 1.156.612 1.741.944a58.703 58.703 0 0 1 4.492 2.793c.354.242.714.491 1.07.748.585.419 1.161.816 1.726 1.191a46.224 46.224 0 0 0 3.589 2.158l.003.003c.359.194.713.382 1.065.556l.001-.003c10.66 5.328 16.738 1.878 17.878-2.494.486-1.874.07-3.918-1.282-5.519zM774.611 626.115c-1.351.082-4.032.442-7.518.994l-.678.107-.509.084a511.892 511.892 0 0 0-11.602 2.03l-.303.056a645.049 645.049 0 0 0-14.285 2.83c-.284.06-.565.119-.847.18-.939.199-1.868.399-2.789.6l-.539.117a426.395 426.395 0 0 0-3.921.884c-.789.183-1.562.363-2.321.544l-.738.175c-.93.224-1.83.447-2.702.668-.239.06-.466.12-.701.18a174.454 174.454 0 0 0-2.656.704c-.785.216-1.532.428-2.232.637l-.432.132c-.566.172-1.097.34-1.596.505-.17.057-.342.113-.503.168-.578.198-1.116.392-1.583.578-.064.026-.113.05-.174.075a14.514 14.514 0 0 0-1.317.614c-.311.171-.58.338-.75.492-1.089.994-.897 3.216-.012 5.959l.002.01c2.524 7.818 11.068 18.049 11.068 18.049 3.125-.311 1.308-2.805 7.081-4.847 2.086-.736 3.916-.468 5.404.174 2.492 1.076 5.561.408 7.555-1.5a35.024 35.024 0 0 1 2.538-2.195 47.763 47.763 0 0 1 4.144-2.917c.462-.292.941-.584 1.435-.868a53.826 53.826 0 0 1 5.464-2.8 56.82 56.82 0 0 1 4.752-1.866c.392-.136.791-.27 1.195-.398a54.215 54.215 0 0 0 1.917-.65 44.431 44.431 0 0 0 3.74-1.534l.003-.002a30.76 30.76 0 0 0 1.044-.504v-.003c10.268-5.18 11.102-11.873 8.375-15.276-1.169-1.453-2.99-2.31-5.009-2.186z" class="color1F367A svgShape"/><path fill="#f9e3cb" d="M398.45 849.701c4.897.668 8.495-7.702 10.514-5.675 1.314 1.307 5.044 4.581 11.013 6.072.866.22 1.777.404 2.739.536 1.857.249 3.891.316 6.101.118 2.482-.22 3.811-.932 4.368-1.894 2.012-3.392-5.381-9.956-5.381-9.956s-1.946-.998-4.721-2.144c-5.169-2.136-13.223-4.802-16.923-2.518-5.698 3.508-12.599 14.786-7.71 15.461z" class="colorF9CBCB svgShape"/><linearGradient id="w" x1="462.149" x2="530.372" y1="856.78" y2="720.718" gradientUnits="userSpaceOnUse"><stop offset=".189" stop-color="#ffb669" class="stopColorffbe69 svgShape"/><stop offset="1" stop-color="#ffb05c" class="stopColorff8f5c svgShape"/></linearGradient><path fill="url(#w)" d="M422.686 853.13c0 1.028 78.713 7.092 90.101-2.107 1.564-1.263 2.9-2.988 4.031-5.088v-.007c12.908-23.927-.389-96.826-.389-96.826-2.313-15.646-29.135-31.727-40.574-14.657-9.809 14.625-2.818 39.539 1.602 63.943.991 5.433 1.887 10.404 2.518 14.618 1.123 7.54 1.358 12.628-.396 13.472-.778.389-9.618 1.337-20.279 2.482-10.785 1.153-23.45 2.504-31.534 3.649a5.654 5.654 0 0 0-4.684 4.148 5.506 5.506 0 0 0-.198 1.402c-.052 3.385-.11 7.856-.154 11.042-.007.514-.007.991-.014 1.432-.023 1.359-.03 2.291-.03 2.497z"/><path fill="#ffffff" d="m344.233 815.047 4.261-3.05-22.235-1.494-4.924 3.174z" class="colorFFF svgShape"/><path fill="#fe9526" d="M721.036 741.357s-.029-.374-.676-.999c.434.624.676.999.676.999z" class="colorF58C4F svgShape"/><path fill="#53d86a" d="M646.706 790.966s27.445 19.815 36.827 17.995c9.163-1.769 20.839 1.493 21.221 1.632-.301-.235-7.311-6.389-3.927-11.396 3.488-5.169 3.733-13.025 1.626-30.074-2.107-17.041-2.68-36.005 7.856-33.134 6.454 1.762 9.031 3.385 10.051 4.368-2.063-2.966-8.48-11.6-14.265-13.179-7.012-1.901-3.45-11.49.382-24.515 3.083-10.484 10.947-18.054 13.149-21.549-5.396-.242-10.404 3.032-12.232 8.179-11.997 33.714-9.89 62.062-9.574 103.118.118 18.181-26.65 7.19-51.114-1.445z" class="colorE6E7E8 svgShape"/><linearGradient id="x" x1="280.691" x2="435.714" y1="814.142" y2="814.142" gradientUnits="userSpaceOnUse"><stop offset="0" stop-color="#abacff" class="stopColorabdcff svgShape"/><stop offset="1" stop-color="#7375ff" class="stopColor73b2ff svgShape"/></linearGradient><path fill="url(#x)" d="M434.613 851.412h-30.868a7.44 7.44 0 0 0-.308-2.015l-22.516-74.79a7.426 7.426 0 0 0-7.11-5.285h-85.69c-4.977 0-8.545 4.8-7.11 9.566l22.516 74.789a7.427 7.427 0 0 0 7.11 5.285h123.976c.608 0 1.101-.493 1.101-1.101v-5.348c0-.608-.493-1.101-1.101-1.101z"/><linearGradient id="y" x1="709.82" x2="709.82" y1="385.799" y2="418.065" gradientUnits="userSpaceOnUse"><stop offset="0" stop-color="#3234b3" class="stopColor326ab3 svgShape"/><stop offset="1" stop-color="#000280" class="stopColor003780 svgShape"/></linearGradient><path fill="url(#y)" d="M664.718 411.228h-17.349v-7.833l17.349-20.622h8.3v21.066h4.302v7.389h-4.302v6.406h-8.3v-6.406zm0-7.388v-10.787l-9.167 10.787h9.167zm19.43-20.482h22.609v7.599h-15.315l-.818 5.144a16.353 16.353 0 0 1 3.145-1.122 13.13 13.13 0 0 1 3.075-.374c3.429 0 6.211 1.037 8.347 3.11 2.135 2.073 3.203 4.684 3.203 7.833 0 2.214-.549 4.341-1.648 6.383-1.099 2.042-2.658 3.601-4.676 4.676-2.019 1.076-4.602 1.613-7.751 1.613-2.26 0-4.197-.214-5.81-.643-1.613-.428-2.985-1.067-4.115-1.917-1.13-.849-2.046-1.812-2.747-2.888-.701-1.075-1.286-2.416-1.754-4.021l9.633-1.052c.234 1.543.779 2.716 1.637 3.519.857.803 1.878 1.204 3.063 1.204 1.325 0 2.42-.503 3.285-1.508.865-1.005 1.298-2.505 1.298-4.501 0-2.042-.437-3.538-1.309-4.489-.873-.951-2.034-1.426-3.484-1.426-.92 0-1.808.226-2.666.678-.639.327-1.341.92-2.104 1.777l-8.113-1.169 3.015-18.426zm55.647 7.716-9.469 1.169c-.249-1.325-.666-2.26-1.251-2.806-.585-.545-1.306-.818-2.163-.818-1.543 0-2.744.78-3.601 2.338-.624 1.122-1.084 3.523-1.379 7.201 1.138-1.153 2.307-2.007 3.507-2.56 1.2-.553 2.587-.83 4.162-.83 3.055 0 5.638 1.091 7.751 3.273 2.112 2.183 3.168 4.949 3.168 8.3 0 2.26-.534 4.325-1.602 6.196-1.068 1.87-2.549 3.285-4.442 4.244-1.894.958-4.267 1.438-7.12 1.438-3.429 0-6.181-.585-8.254-1.754-2.073-1.169-3.729-3.035-4.969-5.6-1.239-2.564-1.859-5.958-1.859-10.183 0-6.188 1.301-10.72 3.905-13.596 2.603-2.876 6.211-4.314 10.825-4.314 2.728 0 4.883.316 6.465.947 1.582.631 2.895 1.555 3.94 2.771 1.045 1.217 1.84 2.745 2.386 4.584zm-17.536 15.268c0 1.855.468 3.308 1.403 4.361.935 1.052 2.081 1.578 3.437 1.578 1.247 0 2.291-.475 3.133-1.426.842-.951 1.263-2.369 1.263-4.255 0-1.933-.437-3.406-1.309-4.419-.873-1.013-1.956-1.52-3.25-1.52-1.325 0-2.435.491-3.332 1.473-.897.981-1.345 2.384-1.345 4.208zm25.766-22.984h22.61v7.599H755.32l-.818 5.144a16.353 16.353 0 0 1 3.145-1.122 13.13 13.13 0 0 1 3.075-.374c3.429 0 6.211 1.037 8.347 3.11 2.135 2.073 3.203 4.684 3.203 7.833 0 2.214-.549 4.341-1.648 6.383-1.099 2.042-2.658 3.601-4.676 4.676-2.019 1.076-4.602 1.613-7.751 1.613-2.26 0-4.197-.214-5.81-.643-1.613-.428-2.985-1.067-4.115-1.917-1.13-.849-2.046-1.812-2.747-2.888-.701-1.075-1.286-2.416-1.754-4.021l9.633-1.052c.234 1.543.779 2.716 1.637 3.519.857.803 1.878 1.204 3.063 1.204 1.324 0 2.42-.503 3.285-1.508.865-1.005 1.298-2.505 1.298-4.501 0-2.042-.437-3.538-1.309-4.489-.873-.951-2.034-1.426-3.484-1.426-.92 0-1.808.226-2.666.678-.639.327-1.341.92-2.104 1.777l-8.113-1.169 3.014-18.426z"/><linearGradient id="z" x1="338.861" x2="338.861" y1="428.038" y2="721.726" gradientUnits="userSpaceOnUse"><stop offset="0" stop-color="#3234b3" class="stopColor326ab3 svgShape"/><stop offset="1" stop-color="#000280" class="stopColor003780 svgShape"/></linearGradient><path fill="url(#z)" d="M437.969 451.065H239.754c-6.124 0-11.086 5.342-11.086 11.935v134.781c0 6.593 4.963 11.957 11.086 11.957h198.215c6.124 0 11.086-5.364 11.086-11.957V463c0-6.593-4.962-11.935-11.086-11.935zm8.023 145.755c0 5.812-4.828 10.505-10.795 10.505H242.503c-5.945 0-10.773-4.693-10.773-10.505V478.267c0-5.812 4.828-10.528 10.773-10.528h192.694c5.968 0 10.795 4.716 10.795 10.528V596.82z"/><path fill="#ffffff" d="M445.992 478.267V596.82c0 5.812-4.828 10.505-10.795 10.505H242.503c-5.945 0-10.773-4.693-10.773-10.505V478.267c0-5.812 4.828-10.528 10.773-10.528h192.694c5.968 0 10.795 4.716 10.795 10.528zM269.16 459.637c0-1.1-.828-1.992-1.849-1.992-1.022 0-1.849.892-1.849 1.992s.828 1.992 1.849 1.992 1.849-.892 1.849-1.992zM259.789 459.637c0-1.1-.828-1.992-1.849-1.992s-1.849.892-1.849 1.992.828 1.992 1.849 1.992 1.849-.892 1.849-1.992zM250.419 459.637c0-1.1-.828-1.992-1.849-1.992s-1.849.892-1.849 1.992.828 1.992 1.849 1.992 1.849-.892 1.849-1.992zM388.103 461.629h42.503a1.992 1.992 0 0 0 0-3.984h-42.503a1.992 1.992 0 1 0 0 3.984z" class="colorFFF svgShape"/><linearGradient id="A" x1="336.745" x2="336.745" y1="536.037" y2="585.878" gradientUnits="userSpaceOnUse"><stop offset="0" stop-color="#abacff" class="stopColorabdcff svgShape"/><stop offset="1" stop-color="#7375ff" class="stopColor73b2ff svgShape"/></linearGradient><path fill="url(#A)" d="M379.235 550.968h-84.98c-6.21 0-11.245 5.034-11.245 11.245v16.935c0 6.21 5.034 11.245 11.245 11.245h84.98c6.21 0 11.245-5.034 11.245-11.245v-16.935c0-6.211-5.035-11.245-11.245-11.245z"/><path fill="#ffffff" d="m303.25 580.758-6.396-16.509h2.365l4.29 11.993c.345.961.635 1.862.867 2.703a34.66 34.66 0 0 1 .889-2.703l4.459-11.993h2.23l-6.464 16.509h-2.24zM313.96 580.758V564.25h11.937v1.948h-9.752v5.056h9.132v1.937h-9.132v5.619h10.135v1.948h-12.32zM329.331 580.758V564.25h7.32c1.471 0 2.59.148 3.356.445.766.296 1.377.82 1.836 1.571.458.751.687 1.58.687 2.489 0 1.171-.379 2.158-1.137 2.962-.758.804-1.93 1.314-3.513 1.532.578.278 1.017.552 1.318.822.638.586 1.242 1.318 1.813 2.196l2.871 4.493h-2.748l-2.184-3.434c-.639-.991-1.164-1.749-1.577-2.275-.413-.525-.783-.893-1.109-1.104a3.298 3.298 0 0 0-.997-.439c-.248-.052-.653-.079-1.216-.079h-2.534v7.331h-2.186zm2.185-9.222h4.696c.999 0 1.779-.104 2.342-.31.563-.207.991-.537 1.284-.991.293-.454.439-.948.439-1.481 0-.78-.283-1.423-.85-1.926-.567-.503-1.463-.754-2.686-.754h-5.225v5.462zM346.324 580.758V564.25h2.185v16.509h-2.185zM352.472 580.758V564.25h11.137v1.948h-8.952v5.112h7.747v1.948h-7.747v7.5h-2.185zM371.098 580.758v-6.993l-6.362-9.516h2.658l3.255 4.977c.6.931 1.16 1.862 1.678 2.793a59.624 59.624 0 0 1 1.802-2.917l3.198-4.853h2.545l-6.588 9.516v6.993h-2.186z" class="colorFFF svgShape"/><linearGradient id="B" x1="257.644" x2="285.017" y1="525.004" y2="525.004" gradientUnits="userSpaceOnUse"><stop offset="0" stop-color="#3234b3" class="stopColor326ab3 svgShape"/><stop offset="1" stop-color="#000280" class="stopColor003780 svgShape"/></linearGradient><path fill="url(#B)" d="m280.012 511.317-17.455.058a4.93 4.93 0 0 0-4.913 4.946l.058 17.455a4.929 4.929 0 0 0 4.946 4.913l17.455-.058a4.93 4.93 0 0 0 4.913-4.946l-.058-17.455a4.93 4.93 0 0 0-4.946-4.913z"/><linearGradient id="C" x1="302.664" x2="330.037" y1="524.853" y2="524.853" gradientUnits="userSpaceOnUse"><stop offset="0" stop-color="#3234b3" class="stopColor326ab3 svgShape"/><stop offset="1" stop-color="#000280" class="stopColor003780 svgShape"/></linearGradient><path fill="url(#C)" d="m325.033 511.167-17.455.058a4.93 4.93 0 0 0-4.913 4.946l.058 17.455a4.93 4.93 0 0 0 4.946 4.913l17.455-.058a4.93 4.93 0 0 0 4.913-4.946l-.058-17.455a4.93 4.93 0 0 0-4.946-4.913z"/><linearGradient id="D" x1="347.685" x2="375.058" y1="524.703" y2="524.703" gradientUnits="userSpaceOnUse"><stop offset="0" stop-color="#3234b3" class="stopColor326ab3 svgShape"/><stop offset="1" stop-color="#000280" class="stopColor003780 svgShape"/></linearGradient><path fill="url(#D)" d="m370.054 511.017-17.455.058a4.93 4.93 0 0 0-4.913 4.946l.058 17.455a4.929 4.929 0 0 0 4.946 4.913l17.455-.058a4.93 4.93 0 0 0 4.913-4.946L375 515.93a4.93 4.93 0 0 0-4.946-4.913z"/><linearGradient id="E" x1="392.706" x2="420.079" y1="524.553" y2="524.553" gradientUnits="userSpaceOnUse"><stop offset="0" stop-color="#3234b3" class="stopColor326ab3 svgShape"/><stop offset="1" stop-color="#000280" class="stopColor003780 svgShape"/></linearGradient><path fill="url(#E)" d="m415.074 510.866-17.455.058a4.93 4.93 0 0 0-4.913 4.946l.058 17.455a4.929 4.929 0 0 0 4.946 4.913l17.455-.058a4.93 4.93 0 0 0 4.913-4.946l-.058-17.455a4.929 4.929 0 0 0-4.946-4.913z"/><path fill="#ffffff" d="M277.165 526.895v-11.913h-4.692l-9.811 11.661v4.429h9.811v3.619h4.692v-3.619h2.431v-4.177h-2.431zm-4.691 0h-5.185l5.185-6.099v6.099zM310.699 515.312h12.783v4.297h-8.659l-.463 2.908a9.34 9.34 0 0 1 1.778-.635 7.409 7.409 0 0 1 1.738-.212c1.939 0 3.512.586 4.72 1.758 1.207 1.172 1.811 2.648 1.811 4.429 0 1.252-.311 2.455-.932 3.609a6.318 6.318 0 0 1-2.644 2.644c-1.141.608-2.602.912-4.382.912-1.278 0-2.373-.121-3.285-.364-.912-.242-1.688-.604-2.327-1.084a6.434 6.434 0 0 1-1.553-1.633c-.397-.608-.727-1.366-.991-2.274l5.447-.595c.132.872.441 1.536.925 1.99a2.447 2.447 0 0 0 1.732.681c.749 0 1.368-.284 1.857-.853.489-.568.734-1.417.734-2.545 0-1.154-.247-2-.74-2.538-.494-.537-1.15-.806-1.97-.806-.52 0-1.022.128-1.507.383-.361.185-.758.52-1.19 1.005l-4.587-.661 1.705-10.416zM367.566 523.616c-1.193-1.237-2.655-1.85-4.38-1.85-.892 0-1.675.153-2.354.465-.679.318-1.341.799-1.982 1.451.164-2.08.427-3.438.777-4.073.487-.881 1.161-1.319 2.037-1.319.482 0 .892.153 1.221.46.334.312.569.838.706 1.588l5.354-.662c-.306-1.04-.755-1.905-1.347-2.59-.591-.69-1.33-1.21-2.228-1.566-.892-.356-2.113-.537-3.652-.537-2.611 0-4.654.816-6.121 2.442-1.473 1.626-2.212 4.188-2.212 7.687 0 2.387.35 4.303 1.051 5.754.701 1.451 1.637 2.507 2.809 3.17 1.172.657 2.732.991 4.67.991 1.61 0 2.951-.274 4.024-.816a5.895 5.895 0 0 0 2.513-2.398c.602-1.057.903-2.228.903-3.504.002-1.896-.595-3.462-1.789-4.693zm-4.024 7.243c-.476.537-1.068.805-1.774.805-.766 0-1.413-.296-1.944-.892-.526-.591-.794-1.412-.794-2.464 0-1.029.257-1.823.761-2.382.509-.553 1.133-.832 1.883-.832.734 0 1.347.29 1.839.859.493.575.739 1.407.739 2.502.002 1.062-.233 1.867-.71 2.404zM400.741 515.312h12.783v4.297h-8.659l-.463 2.908a9.34 9.34 0 0 1 1.778-.635 7.409 7.409 0 0 1 1.738-.212c1.939 0 3.512.586 4.72 1.758 1.207 1.172 1.811 2.648 1.811 4.429 0 1.252-.311 2.455-.932 3.609a6.318 6.318 0 0 1-2.644 2.644c-1.141.608-2.602.912-4.382.912-1.278 0-2.373-.121-3.285-.364-.912-.242-1.688-.604-2.327-1.084a6.434 6.434 0 0 1-1.553-1.633c-.397-.608-.727-1.366-.991-2.274l5.447-.595c.132.872.441 1.536.925 1.99a2.447 2.447 0 0 0 1.732.681c.749 0 1.368-.284 1.857-.853.489-.568.734-1.417.734-2.545 0-1.154-.247-2-.74-2.538-.494-.537-1.15-.806-1.97-.806-.52 0-1.022.128-1.507.383-.361.185-.758.52-1.19 1.005l-4.587-.661 1.705-10.416z" class="colorFFF svgShape"/><linearGradient id="F" x1="400.858" x2="400.858" y1="626.875" y2="656.62" gradientUnits="userSpaceOnUse"><stop offset="0" stop-color="#3234b3" class="stopColor326ab3 svgShape"/><stop offset="1" stop-color="#000280" class="stopColor003780 svgShape"/></linearGradient><path fill="url(#F)" d="M388.525 632.422a8.335 8.335 0 1 1 16.67 0 8.335 8.335 0 0 1-16.67 0zm19.939 24.339a4.728 4.728 0 1 0 0-9.457 4.728 4.728 0 0 0 0 9.457z"/><linearGradient id="G" x1="853.91" x2="942.934" y1="137.869" y2="258.403" gradientUnits="userSpaceOnUse"><stop offset="0" stop-color="#3234b3" class="stopColor326ab3 svgShape"/><stop offset="1" stop-color="#000280" class="stopColor003780 svgShape"/></linearGradient><ellipse cx="887.862" cy="183.838" fill="url(#G)" rx="60.984" ry="58.91"/><ellipse cx="886.954" cy="167.175" fill="#ffffff" rx="23.675" ry="22.87" class="colorFFF svgShape"/><path fill="#ffffff" d="M908.668 190.229c-1.906-1.438-4.569-1.387-6.442.089-4.075 3.211-9.284 5.146-14.966 5.146-5.497 0-10.553-1.808-14.564-4.848-1.909-1.447-4.617-1.418-6.459.109-4.776 3.956-7.685 9.661-7.685 17.077v.669c0 3.835 3.219 6.944 7.189 6.944h44.241c3.97 0 7.188-3.109 7.188-6.944v-.669c.001-7.733-3.248-13.608-8.502-17.573z" class="colorFFF svgShape"/><path fill="#595bd4" d="M867.152 501.266c-.439 0-.83-.225-.913-.548-.094-.364.24-.713.745-.78.019-.002 2.01-.269 5.418-.818.501-.08.998.147 1.109.508.112.361-.203.719-.704.799-3.445.555-5.465.825-5.485.828a1.399 1.399 0 0 1-.17.011zM429.163 145.592a245.374 245.374 0 0 0-9.129 4.713c-.409.223-.491.643-.182.938.183.174.461.266.742.266.196 0 .392-.044.56-.135a242.135 242.135 0 0 1 9.054-4.674c.425-.208.534-.625.245-.93-.289-.306-.867-.385-1.29-.178zM370.584 210.354c.012-.37-.394-.677-.907-.686h-.023c-.503 0-.916.289-.929.653a43.682 43.682 0 0 0 .505 8.134c.053.342.455.595.922.595.034 0 .07-.001.105-.005.51-.041.876-.373.819-.74a42.86 42.86 0 0 1-.516-6.572c0-.461.008-.921.024-1.379zM373.013 226.152c-.121-.359-.619-.578-1.122-.493-.498.087-.805.449-.684.809a58.849 58.849 0 0 0 3.28 7.778c.137.272.494.44.873.44.106 0 .214-.013.318-.04.483-.127.731-.511.555-.858a57.886 57.886 0 0 1-3.22-7.636zM370.547 203.015c.051.006.103.009.153.009.446 0 .841-.232.915-.56a45.16 45.16 0 0 1 2.541-7.716c.152-.353-.122-.728-.612-.838-.49-.11-1.011.088-1.163.441a46.04 46.04 0 0 0-2.599 7.894c-.084.365.259.71.765.77zM499.317 121.23c.113 0 .226-.014.337-.046a622.296 622.296 0 0 1 10.456-2.831c.483-.126.731-.51.556-.858-.175-.348-.707-.527-1.19-.401a629.673 629.673 0 0 0-10.496 2.842c-.478.134-.715.522-.529.867.143.265.494.427.866.427zM520.352 115.723c.099 0 .2-.011.299-.035a734.485 734.485 0 0 1 10.615-2.51c.489-.111.761-.488.605-.84-.155-.352-.675-.549-1.167-.436-3.59.821-7.173 1.668-10.651 2.518-.486.119-.746.499-.581.849.131.278.492.454.88.454zM382.947 179.376c-.439-.191-1.01-.089-1.275.228a67.765 67.765 0 0 0-5.265 7.17c-.214.337-.008.734.459.887.125.041.256.06.385.06.353 0 .69-.145.846-.391a66.645 66.645 0 0 1 5.166-7.035c.265-.317.124-.728-.316-.919zM412.566 155.437c-.331-.281-.917-.318-1.31-.078a169.417 169.417 0 0 0-8.345 5.425c-.37.257-.38.681-.024.947.183.136.426.205.669.205.232 0 .465-.062.645-.187a167.009 167.009 0 0 1 8.256-5.368c.392-.24.441-.662.109-.944zM422.02 266.166a172.222 172.222 0 0 1-9.854-3.663c-.444-.182-1.013-.069-1.267.252-.253.322-.097.73.35.913a174.274 174.274 0 0 0 9.98 3.71c.128.043.262.064.395.064.349 0 .683-.142.841-.385.219-.335.02-.734-.445-.891zM380.636 241.077c-.244-.325-.809-.447-1.259-.27-.452.176-.62.582-.375.908 1.746 2.326 3.854 4.595 6.267 6.745.183.163.452.248.723.248.205 0 .412-.049.584-.149.399-.233.461-.654.138-.942-2.341-2.086-4.386-4.286-6.078-6.54zM402.826 258.256c-3.107-1.576-5.999-3.237-8.594-4.934-.38-.248-.967-.228-1.312.046-.345.274-.317.697.064.945 2.652 1.735 5.604 3.43 8.773 5.038.163.082.349.122.534.122.291 0 .579-.099.76-.284.296-.302.195-.72-.225-.933zM396.416 166.562c-.383-.247-.97-.223-1.312.053a108.891 108.891 0 0 0-7.135 6.267c-.307.296-.224.716.187.938.168.09.363.134.557.134.282 0 .562-.093.745-.268a107.688 107.688 0 0 1 7.032-6.178c.342-.276.309-.7-.074-.946zM541.683 110.845c.088 0 .177-.009.265-.027a799.56 799.56 0 0 1 10.742-2.218c.494-.098.784-.467.647-.824-.137-.357-.651-.567-1.144-.466-3.607.72-7.232 1.468-10.774 2.224-.492.105-.773.478-.627.833.121.29.491.478.891.478zM961.515 323.697a158.925 158.925 0 0 1 9.838 3.694c.147.061.306.09.464.09.321 0 .633-.12.805-.335.256-.321.104-.73-.34-.915a161.592 161.592 0 0 0-9.975-3.745c-.461-.157-1.017-.014-1.236.32-.219.335-.02.734.444.891zM977.21 408.847c2.618 1.375 4.953 3.35 6.941 5.872.171.217.486.339.809.339.155 0 .313-.028.458-.087.446-.183.603-.592.349-.913-2.119-2.688-4.629-4.805-7.462-6.292-.415-.218-.997-.152-1.299.147-.302.297-.211.716.204.934zM956.83 409.052c.177 0 .355-.036.513-.112 3.152-1.506 6.604-2.331 9.984-2.387.513-.009.919-.315.908-.685-.012-.37-.443-.651-.95-.654-3.731.062-7.524.965-10.969 2.61-.428.204-.544.62-.261.928.179.195.475.3.775.3zM563.251 106.539c.077 0 .155-.007.233-.021a929.585 929.585 0 0 1 10.844-1.95c.499-.086.806-.448.686-.808-.119-.359-.621-.578-1.121-.494-3.641.632-7.299 1.29-10.873 1.955-.497.092-.796.458-.667.816.108.302.485.502.898.502zM695.642 91.043c.023 0 .047 0 .07-.002 3.728-.199 7.449-.376 11.163-.535.512-.022.903-.339.872-.708-.03-.369-.454-.657-.982-.629-3.723.159-7.454.337-11.19.536-.512.027-.896.348-.859.717.037.353.444.621.926.621zM1014.409 362.855c.156.245.492.388.844.388.13 0 .264-.02.39-.062.466-.156.668-.554.452-.889a81.253 81.253 0 0 0-5.229-7.191c-.26-.319-.83-.426-1.272-.24-.443.187-.592.597-.333.916a79.676 79.676 0 0 1 5.148 7.078zM980.634 331.718c3.082 1.619 5.921 3.328 8.437 5.077.181.125.413.188.646.188.243 0 .486-.068.669-.204.356-.266.346-.69-.023-.947-2.577-1.792-5.482-3.54-8.633-5.195-.415-.218-.996-.153-1.298.146-.304.298-.213.717.202.935zM673.317 92.465l.096-.003c3.721-.276 7.441-.533 11.158-.769.511-.033.89-.357.844-.726-.046-.369-.5-.636-1.007-.608-3.727.238-7.456.494-11.185.771-.511.038-.882.367-.83.735.05.343.453.6.924.6zM585.01 102.762c.067 0 .135-.005.204-.016 3.595-.58 7.27-1.151 10.925-1.698.502-.075.825-.43.721-.791-.105-.362-.595-.597-1.099-.52a983.076 983.076 0 0 0-10.954 1.702c-.5.081-.815.439-.703.8.097.311.48.523.906.523zM606.924 99.484c.058 0 .117-.004.176-.012 3.642-.503 7.331-.993 10.965-1.454.505-.064.843-.411.754-.776-.089-.365-.567-.606-1.077-.543-3.642.463-7.34.953-10.991 1.458-.504.07-.835.421-.738.784.084.32.474.543.911.543zM651.056 94.348c.04 0 .082-.002.123-.006 3.698-.352 7.4-.684 11.103-.998.51-.043.874-.376.814-.743-.059-.367-.527-.638-1.031-.587-3.713.314-7.423.647-11.13 1-.509.048-.867.385-.8.751.062.338.462.583.921.583zM628.918 96.687c.049 0 .099-.003.149-.009 3.672-.427 7.353-.835 11.039-1.224.508-.054.859-.394.785-.76-.074-.366-.542-.617-1.055-.566-3.695.39-7.384.799-11.065 1.228-.506.059-.851.402-.769.768.073.329.469.563.916.563zM468.117 129.573a429.535 429.535 0 0 0-10.025 3.628c-.455.171-.631.575-.394.903.166.229.49.36.824.36.145 0 .292-.024.429-.076a426.743 426.743 0 0 1 9.973-3.609c.462-.161.656-.561.433-.894-.222-.334-.778-.474-1.24-.312zM986.557 452.483c-.455-.168-1.016-.04-1.252.288-1.625 2.268-3.607 4.52-5.894 6.696-.309.295-.229.714.18.938.168.092.365.135.56.135.281 0 .558-.091.742-.265 2.35-2.236 4.39-4.554 6.063-6.889.236-.33.057-.734-.399-.903zM959.847 433.381c-3.636-1.25-6.537-2.787-8.623-4.57-.331-.283-.917-.319-1.309-.08-.393.238-.443.661-.111.943 2.257 1.929 5.367 3.583 9.243 4.915.129.044.265.065.399.065.347 0 .68-.141.839-.381.221-.333.025-.733-.438-.892zM992.187 437.034c-.518-.025-.954.257-.987.626a28.02 28.02 0 0 1-1.847 7.772c-.14.356.147.726.641.826.085.017.17.025.254.025.405 0 .778-.192.893-.487a29.034 29.034 0 0 0 1.914-8.051c.033-.369-.356-.688-.868-.711zM991.706 430.333c.042 0 .084-.002.127-.006.508-.05.864-.387.796-.754-.49-2.602-1.328-5.28-2.491-7.961-.153-.352-.674-.552-1.164-.439-.49.11-.763.486-.61.839 1.131 2.61 1.947 5.215 2.423 7.742.063.336.461.579.919.579zM442.677 272.109a285.82 285.82 0 0 1-10.452-2.768c-.477-.136-1.017.032-1.207.375-.189.344.044.733.521.87 3.353.959 6.899 1.898 10.539 2.791.099.025.2.036.299.036.387 0 .748-.175.88-.454.166-.351-.094-.731-.58-.85zM982.14 436.038c-.091-.363-.573-.606-1.08-.539-3.631.474-7.3.534-10.836.18-.505-.047-.978.205-1.049.571-.071.366.284.704.792.755 1.598.16 3.232.242 4.857.242 2.171 0 4.38-.145 6.567-.431.505-.065.841-.414.749-.778zM1000.578 428.735a52.468 52.468 0 0 1-9.188 4.284c-.461.163-.651.564-.425.896.161.237.491.375.835.375.137 0 .276-.022.408-.069a54.47 54.47 0 0 0 9.548-4.451c.397-.234.455-.656.13-.942-.325-.285-.91-.327-1.308-.093zM1025.007 385.71c-.044-.368-.505-.645-1.005-.609-.512.031-.891.356-.846.724.202 1.694.304 3.403.304 5.08 0 .963-.034 1.932-.1 2.88-.026.369.368.684.881.702l.047.001c.492 0 .903-.278.927-.636.068-.97.103-1.962.103-2.947 0-1.715-.104-3.463-.311-5.195zM1023.112 401.152c-.502-.073-.992.164-1.091.527a41.552 41.552 0 0 1-2.943 7.66c-.175.348.075.732.557.858.104.027.211.04.316.04.38 0 .737-.169.874-.441a42.605 42.605 0 0 0 3.019-7.857c.1-.363-.228-.715-.732-.787zM997.92 341.846c-.328-.285-.913-.324-1.308-.089-.396.236-.451.658-.124.943a117.611 117.611 0 0 1 6.755 6.355c.181.185.468.283.76.283.185 0 .372-.04.535-.122.419-.213.519-.631.223-.933a119.275 119.275 0 0 0-6.841-6.437zM1015.775 416.308c-.449-.179-1.014-.065-1.265.258a47.781 47.781 0 0 1-6.183 6.56c-.326.286-.267.708.13.942.172.102.381.152.588.152.269 0 .536-.084.719-.245a49.251 49.251 0 0 0 6.368-6.755c.25-.324.09-.732-.357-.912zM1022.414 378.475c.065 0 .131-.005.197-.015.502-.078.82-.434.713-.796a56.072 56.072 0 0 0-3.022-7.834c-.166-.35-.694-.537-1.179-.418-.486.119-.746.5-.581.85a54.816 54.816 0 0 1 2.965 7.685c.093.313.478.528.907.528zM972.131 465.451c-2.503 1.801-5.287 3.588-8.273 5.311-.4.231-.465.652-.145.941.183.165.454.251.726.251.204 0 .409-.048.58-.147 3.039-1.754 5.873-3.574 8.425-5.409.364-.261.364-.685.001-.947-.363-.261-.95-.261-1.314 0zM954.883 475.478a177.236 177.236 0 0 1-9.475 4.2c-.446.183-.603.592-.349.913.172.217.485.338.809.338.156 0 .314-.028.458-.088a178.796 178.796 0 0 0 9.588-4.25c.427-.205.543-.621.258-.929-.285-.306-.863-.39-1.289-.184zM893.981 495.026c-3.552.77-7.17 1.506-10.754 2.187-.496.094-.792.461-.661.818.11.3.487.499.898.499.078 0 .159-.007.237-.022a433.817 433.817 0 0 0 10.815-2.199c.492-.106.77-.48.622-.834-.148-.355-.669-.553-1.157-.449zM485.834 280.272a617.908 617.908 0 0 1-10.922-1.693c-.502-.082-.999.144-1.113.504-.114.361.199.72.699.802 3.546.582 7.236 1.154 10.967 1.699.062.009.125.014.185.014.433 0 .821-.219.909-.537.103-.362-.222-.716-.725-.789zM464.061 276.68a432.988 432.988 0 0 1-10.756-2.142c-.491-.105-1.009.098-1.154.452-.145.355.136.727.628.832 3.47.738 7.109 1.463 10.816 2.154.078.014.157.021.233.021.413 0 .791-.2.899-.502.129-.357-.17-.723-.666-.815zM448.236 137.066a334.907 334.907 0 0 0-9.655 4.122c-.437.195-.571.608-.301.922.176.205.48.317.79.317.167 0 .337-.032.489-.1a327.939 327.939 0 0 1 9.594-4.096c.446-.183.603-.591.35-.913-.254-.322-.822-.435-1.267-.252zM488.578 122.955a533.286 533.286 0 0 0-10.292 3.207c-.468.151-.678.548-.468.885.155.248.494.396.849.396.127 0 .256-.019.379-.058a524.006 524.006 0 0 1 10.248-3.193c.474-.143.698-.535.5-.876-.198-.342-.739-.503-1.216-.361zM949.7 413.627c-.445-.185-1.013-.075-1.269.246-1.918 2.399-2.932 4.993-2.931 7.5 0 .185.005.37.016.555.021.36.433.641.928.641h.04c.513-.016.911-.328.89-.697a8.305 8.305 0 0 1-.015-.498c-.001-2.274.928-4.636 2.683-6.831.255-.322.103-.731-.342-.916zM915.115 489.842c-3.404.94-6.936 1.859-10.499 2.731-.486.119-.746.499-.581.849.131.279.492.454.88.454.099 0 .2-.011.299-.036a374.56 374.56 0 0 0 10.567-2.749c.479-.132.719-.52.535-.865-.184-.343-.721-.518-1.201-.384zM951.643 320.57c.37 0 .72-.16.865-.424.188-.344-.046-.733-.523-.869a280.094 280.094 0 0 0-10.56-2.771c-.484-.118-1.013.071-1.177.421-.163.351.098.73.585.848 3.628.879 7.151 1.803 10.469 2.747.112.033.227.048.341.048zM935.562 483.436a275.427 275.427 0 0 1-10.115 3.372c-.471.147-.687.541-.483.88.152.252.494.403.853.403.123 0 .248-.018.369-.056a273.73 273.73 0 0 0 10.199-3.4c.461-.164.649-.565.422-.897-.227-.33-.788-.466-1.245-.302zM930.444 315.409c.403 0 .774-.19.892-.483.143-.355-.141-.726-.634-.829a433.273 433.273 0 0 0-10.839-2.113c-.5-.091-1.002.127-1.128.485-.126.358.175.723.673.813a427.45 427.45 0 0 1 10.777 2.101c.086.018.173.026.259.026zM718.193 90.087c-.495 0-.906-.281-.928-.64-.022-.37.376-.682.888-.698 1.861-.058 3.72-.112 5.576-.16.493-.013.944.276.962.645.019.37-.383.68-.895.693-1.852.048-3.706.102-5.562.16h-.041z" class="color3A67B3 svgShape"/><linearGradient id="H" x1="736.972" x2="771.904" y1="83.675" y2="83.675" gradientUnits="userSpaceOnUse"><stop offset="0" stop-color="#abacff" class="stopColorabdcff svgShape"/><stop offset="1" stop-color="#7375ff" class="stopColor73b2ff svgShape"/></linearGradient><path fill="url(#H)" d="m736.972 90.656 34.932 2.198-10.499-18.357z"/><linearGradient id="I" x1="758.274" x2="814.681" y1="90.382" y2="90.382" gradientUnits="userSpaceOnUse"><stop offset="0" stop-color="#abacff" class="stopColorabdcff svgShape"/><stop offset="1" stop-color="#7375ff" class="stopColor73b2ff svgShape"/></linearGradient><path fill="url(#I)" d="m769.174 98.648 45.507-13.868-56.408-2.665z"/><linearGradient id="J" x1="744.64" x2="814.725" y1="67.861" y2="67.861" gradientUnits="userSpaceOnUse"><stop offset="0" stop-color="#abacff" class="stopColorabdcff svgShape"/><stop offset="1" stop-color="#7375ff" class="stopColor73b2ff svgShape"/></linearGradient><path fill="url(#J)" d="M814.725 84.723 744.64 51l9.986 16.81z"/><linearGradient id="K" x1="736.972" x2="814.681" y1="79.1" y2="79.1" gradientUnits="userSpaceOnUse"><stop offset="0" stop-color="#abacff" class="stopColorabdcff svgShape"/><stop offset="1" stop-color="#7375ff" class="stopColor73b2ff svgShape"/></linearGradient><path fill="url(#K)" d="m814.681 84.78-56.527-2.508-21.182 8.384 17.652-23.113z"/><path fill="#abacf5" d="M1015.686 257.147a18.66 18.66 0 0 0-.064-1.436 4.357 4.357 0 0 0-.014-.228 21.902 21.902 0 0 0-.222-1.748 22.07 22.07 0 0 0-.95-3.72c-.12-.354-.253-.697-.391-1.041l-.169-.399a22.411 22.411 0 0 0-.633-1.348l-.211-.399a22.135 22.135 0 0 0-2.702-3.948c-.116-.137-.236-.273-.355-.41a20.723 20.723 0 0 0-.982-1.03c-.246-.249-.5-.487-.76-.718a22.535 22.535 0 0 0-15.129-5.808 22.518 22.518 0 0 0-15.125 5.808c-.26.231-.514.469-.763.718a20.81 20.81 0 0 0-1.337 1.44 22.327 22.327 0 0 0-2.698 3.948l-.211.399c-.225.441-.44.89-.633 1.348l-.169.399a22.045 22.045 0 0 0-1.576 6.737 20.052 20.052 0 0 0-.064 1.436c-.004.084-.004.168-.004.252a22.606 22.606 0 0 0 .471 4.589 21.608 21.608 0 0 0 .609 2.295c.239.732.514 1.45.823 2.151.046.105.095.21.144.315.225.49.468.967.725 1.433.056.105.116.21.179.312.289.508.598 1.005.929 1.485.334.494.686.974 1.063 1.44a21.829 21.829 0 0 0 1.647 1.835c.619.62 1.274 1.205 1.963 1.748a22.512 22.512 0 0 0 13.992 4.878l.037.002.042-.002a22.522 22.522 0 0 0 13.987-4.878 22.01 22.01 0 0 0 1.963-1.748 21.817 21.817 0 0 0 1.646-1.835c.376-.466.728-.946 1.063-1.44.331-.48.64-.977.929-1.485a21.586 21.586 0 0 0 .904-1.745l.141-.315c.31-.701.584-1.419.823-2.151a22.225 22.225 0 0 0 .901-4.043 21.48 21.48 0 0 0 .158-1.864 17.597 17.597 0 0 0 .023-1.229zm-2.47-3.412c.106.575.187 1.156.243 1.748.007.077.014.151.017.228h-6.134a33.714 33.714 0 0 0-.762-5.695h5.577c.468 1.19.827 2.433 1.059 3.719zm-7.865 3.769c0 1.848-.153 3.636-.435 5.338h-4.242c.148-1.742.225-3.549.225-5.389 0-.103-.002-.204-.003-.307h4.449c.001.12.006.238.006.358zm-24.487 0c0-.12.004-.238.006-.358h4.448l-.002.307c0 1.84.077 3.647.225 5.389h-4.242a32.797 32.797 0 0 1-.435-5.338zm18.269-.051c0 1.861-.088 3.67-.248 5.389h-4.9v-5.696h5.146c-.001.103.002.205.002.307zm-12.05 0 .002-.307h5.145v5.696h-4.9a58.316 58.316 0 0 1-.247-5.389zm6.901-19.202c.903.446 1.747 1.565 2.481 3.189h-2.481v-3.189zm-1.753 0v3.189h-2.481c.733-1.624 1.578-2.743 2.481-3.189zm0 4.629v5.695h-4.455c.355-2.16.833-4.092 1.401-5.695h3.054zm0 7.135v5.695h-5.121c.058-1.992.213-3.908.451-5.695h4.67zm0 14.267v5.695h-3.684c-.449-1.685-.811-3.609-1.063-5.695h4.747zm0 7.135v5.239c-1.244-.614-2.376-2.51-3.261-5.239h3.261zm1.753 5.238v-5.239h3.261c-.884 2.729-2.017 4.625-3.261 5.239zm0-6.678v-5.695h4.747c-.252 2.087-.614 4.011-1.063 5.695h-3.684zm0-14.267v-5.695h4.671c.238 1.788.393 3.704.451 5.695h-5.122zm0-7.135v-5.695h3.054c.569 1.603 1.046 3.535 1.401 5.695h-4.455zm5.044-5.695h2.533c1.032 1.632 1.893 3.556 2.531 5.695h-3.826c-.307-2.057-.722-3.979-1.238-5.695zm-.476-1.44c-.421-1.169-.884-2.182-1.381-3.031 1.227.716 2.363 1.745 3.376 3.031h-1.995zm-9.507-3.031c-.497.849-.96 1.862-1.381 3.031h-1.995c1.012-1.285 2.149-2.315 3.376-3.031zm-1.858 4.471c-.516 1.716-.931 3.638-1.239 5.695h-3.826c.638-2.139 1.499-4.063 2.531-5.695h2.534zm-1.435 7.135a60.8 60.8 0 0 0-.411 5.695h-4.426c.106-1.995.389-3.907.821-5.695h4.016zm-.069 14.267c.223 2.022.545 3.938.96 5.695h-3.168c-.808-1.702-1.455-3.62-1.902-5.695h4.11zm1.329 7.135c.136.487.279.961.43 1.417.503 1.515 1.074 2.79 1.695 3.816-1.887-1.073-3.566-2.887-4.911-5.234h2.786zm10.066 5.233c.62-1.027 1.191-2.301 1.694-3.816.151-.456.294-.93.43-1.417h2.786c-1.344 2.346-3.023 4.16-4.91 5.233zm2.494-6.673c.414-1.758.737-3.674.96-5.695h4.111c-.447 2.075-1.095 3.994-1.902 5.695h-3.169zm1.302-14.267a60.776 60.776 0 0 0-.411-5.695h4.016c.432 1.788.715 3.7.821 5.695h-4.426zm9.696-8.883c.081.133.158.266.236.399.257.438.496.89.721 1.348h-5.311c-.567-2.054-1.331-3.972-2.279-5.695h3.481a20.519 20.519 0 0 1 3.152 3.948zm-4.795-5.387h-2.704a17.603 17.603 0 0 0-2.385-2.938 20.391 20.391 0 0 1 5.089 2.938zm-24.371-.718a20.376 20.376 0 0 1 4.126-2.22 17.644 17.644 0 0 0-2.385 2.938h-2.705c.313-.252.636-.49.964-.718zm-5.999 6.505c.077-.133.158-.266.239-.399a20.387 20.387 0 0 1 3.156-3.948h3.478c-.948 1.723-1.712 3.642-2.279 5.695h-5.315c.225-.459.464-.91.721-1.348zm-2.653 8.256c.056-.592.137-1.173.246-1.748a19.779 19.779 0 0 1 1.059-3.72h5.577a33.741 33.741 0 0 0-.762 5.695h-6.138c.004-.077.011-.15.018-.227zm.44 6.504a20.352 20.352 0 0 1-.528-4.589c0-.084 0-.168.003-.252h6.162c-.001.119-.005.238-.005.358 0 1.822.138 3.611.405 5.338h-5.819a17.834 17.834 0 0 1-.218-.855zm2.79 6.505a19.682 19.682 0 0 1-1.189-2.06 20.363 20.363 0 0 1-.925-2.151h5.62c.405 2.017.99 3.932 1.744 5.695h-4.176a18.45 18.45 0 0 1-1.074-1.484zm4.324 4.76a20.323 20.323 0 0 1-1.998-1.835h3.593c.304.601.627 1.181.973 1.737a18.371 18.371 0 0 0 2.303 2.996 20.36 20.36 0 0 1-4.871-2.898zm25.603 0a20.284 20.284 0 0 1-2.554 1.748 20.14 20.14 0 0 1-2.317 1.151 18.286 18.286 0 0 0 2.304-2.997c.346-.555.669-1.136.973-1.737h3.592a20.19 20.19 0 0 1-1.998 1.835zm5.513-6.82a19.896 19.896 0 0 1-.985 1.748c-.067.105-.134.21-.204.312-.334.511-.69 1.005-1.073 1.485h-4.176a29.065 29.065 0 0 0 1.744-5.695h5.619a20.437 20.437 0 0 1-.925 2.15zm-4.436-3.59c.267-1.727.405-3.516.405-5.338 0-.12-.004-.238-.005-.358h6.158c.004.084.004.168.004.252a19.034 19.034 0 0 1-.197 2.841 18.843 18.843 0 0 1-.546 2.603h-5.819zM435.368 205.151l39.014-.13c-1.384-2.041-3.871-3.405-6.71-3.396l-2.51.008v-5.572c.05-.187.085-.38.084-.583l-.021-6.262c-.017-5.211-4.26-9.425-9.475-9.408l-13.904.046c-5.215.017-9.425 4.26-9.408 9.471l.041 12.416-2.406.008c-2.839.01-5.322 1.39-6.692 3.44l9.109-.03 2.878-.008zm7.054-20.785 12.784-.043a5.49 5.49 0 0 1 5.508 5.471l.015 4.495v7.359l-23.743.079-.039-11.85a5.495 5.495 0 0 1 5.475-5.511zM475.537 208.71a6.537 6.537 0 0 0-.422-2.275l-52.457.175a6.418 6.418 0 0 0-.403 2.28l.024 6.569c.042 13.337 12.005 24.119 26.716 24.067 7.36-.024 14.005-2.754 18.811-7.138 4.811-4.389 7.773-10.441 7.749-17.11l-.018-6.568zm-26.574 20.806a8.912 8.912 0 0 1-.062-17.821c4.924-.014 8.929 3.962 8.943 8.882.015 4.92-3.957 8.925-8.881 8.939z" class="colorABD5F5 svgShape"/><path fill="#abacf5" d="M448.802 216.497a2.127 2.127 0 0 0-1.986 2.057 2.106 2.106 0 0 0 1.028 1.863l-.37 4.834a.341.341 0 0 0 .341.37l2.27-.01a.337.337 0 0 0 .336-.37l-.403-4.834a2.095 2.095 0 0 0 1.019-1.806 2.117 2.117 0 0 0-2.235-2.104zM1033.284 677.924c.065.795-3.794 21.043-2.962 21.229 2.835.966 5.505-2.519 6.836-5.085 4.255-9.403-1.099-21.599-12.5-20.997-6.159-.017-11.743 3.078-14.435 8.729-8.671 19.279 9.896 35.169 26.992 22.131h5.102c-12.869 15.421-38.291 8.596-37.953-12.755-.083-7.606 3.479-15.254 9.781-19.103 6.585-4.148 17.9-3.654 23.257 2.263 5.296 5.006 6.356 14.789 2.999 21.414-1.883 4.755-12.052 12.154-14.833 4.971-6.139 6.751-14.724.855-14.086-7.73-.683-8.953 8.803-22.849 16.5-12.255l.448-2.812h4.854zm-16.575 16.284c-.395 4.187 3.226 7.923 6.571 4.461 2.333-3.075 4.651-12.847 2.19-16.367-3.659-3.553-7.156 1.076-7.902 5.282-.573 2.41-.859 4.619-.859 6.624z" class="colorABD5F5 svgShape"/><linearGradient id="L" x1="1065.574" x2="1076.812" y1="482.957" y2="490.339" gradientUnits="userSpaceOnUse"><stop offset="0" stop-color="#9698ff" class="stopColor96d3ff svgShape"/><stop offset="1" stop-color="#7375ff" class="stopColor73b2ff svgShape"/></linearGradient><path fill="url(#L)" d="M1075.498 484.809c.282.456.372 1.006.24 1.547a2.015 2.015 0 0 1-1.406 1.47l-6.815 1.988a2.014 2.014 0 0 1-1.976-.483 2.013 2.013 0 0 1-.569-1.953l1.686-6.896c.175-.715.7-1.264 1.406-1.47a2.014 2.014 0 0 1 1.976.483l5.129 4.908c.129.124.239.26.329.406zm-8.919 3.275a.422.422 0 0 0 .489.19l6.815-1.988a.426.426 0 0 0 .298-.311.422.422 0 0 0-.12-.413l-5.129-4.908a.422.422 0 0 0-.418-.102.424.424 0 0 0-.298.311l-1.686 6.896a.411.411 0 0 0 .049.325z"/><linearGradient id="M" x1="316.853" x2="328.091" y1="683.297" y2="690.679" gradientUnits="userSpaceOnUse"><stop offset="0" stop-color="#9698ff" class="stopColor96d3ff svgShape"/><stop offset="1" stop-color="#7375ff" class="stopColor73b2ff svgShape"/></linearGradient><path fill="url(#M)" d="M326.778 685.149c.282.456.372 1.006.24 1.547a2.015 2.015 0 0 1-1.406 1.47l-6.815 1.988a2.014 2.014 0 0 1-1.976-.483 2.013 2.013 0 0 1-.569-1.953l1.686-6.896a2.015 2.015 0 0 1 1.406-1.47 2.014 2.014 0 0 1 1.976.483l5.129 4.908c.128.124.238.261.329.406zm-8.92 3.275a.422.422 0 0 0 .489.19l6.815-1.988a.426.426 0 0 0 .298-.311.422.422 0 0 0-.12-.413l-5.129-4.908a.422.422 0 0 0-.418-.102.424.424 0 0 0-.298.311l-1.686 6.896a.42.42 0 0 0 .049.325z"/><linearGradient id="N" x1="520.924" x2="532.162" y1="80.442" y2="87.824" gradientUnits="userSpaceOnUse"><stop offset="0" stop-color="#9698ff" class="stopColor96d3ff svgShape"/><stop offset="1" stop-color="#7375ff" class="stopColor73b2ff svgShape"/></linearGradient><path fill="url(#N)" d="M530.848 82.294c.282.456.372 1.006.24 1.547a2.015 2.015 0 0 1-1.406 1.47l-6.815 1.988a2.014 2.014 0 0 1-1.976-.483 2.013 2.013 0 0 1-.569-1.953l1.686-6.896a2.015 2.015 0 0 1 1.406-1.47 2.014 2.014 0 0 1 1.976.483l5.129 4.908c.129.124.239.26.329.406zm-8.919 3.275a.422.422 0 0 0 .489.19l6.815-1.988a.426.426 0 0 0 .298-.311.422.422 0 0 0-.12-.413l-5.129-4.908a.422.422 0 0 0-.418-.102.424.424 0 0 0-.298.311l-1.686 6.896a.411.411 0 0 0 .049.325z"/><linearGradient id="O" x1="951.547" x2="962.785" y1="101.792" y2="109.174" gradientUnits="userSpaceOnUse"><stop offset="0" stop-color="#9698ff" class="stopColor96d3ff svgShape"/><stop offset="1" stop-color="#7375ff" class="stopColor73b2ff svgShape"/></linearGradient><path fill="url(#O)" d="M961.471 103.644c.282.456.372 1.006.24 1.547a2.015 2.015 0 0 1-1.406 1.47l-6.815 1.988a2.014 2.014 0 0 1-1.976-.483 2.013 2.013 0 0 1-.569-1.953l1.686-6.896a2.015 2.015 0 0 1 1.406-1.47 2.014 2.014 0 0 1 1.976.483l5.129 4.908c.129.124.239.26.329.406zm-8.919 3.275a.422.422 0 0 0 .489.19l6.815-1.988a.426.426 0 0 0 .298-.311.422.422 0 0 0-.12-.413l-5.129-4.908a.422.422 0 0 0-.418-.102.424.424 0 0 0-.298.311l-1.686 6.896a.411.411 0 0 0 .049.325z"/><linearGradient id="P" x1="951.334" x2="961.322" y1="365.898" y2="365.898" gradientUnits="userSpaceOnUse"><stop offset=".189" stop-color="#ffb669" class="stopColorffbe69 svgShape"/><stop offset="1" stop-color="#ffb05c" class="stopColorff8f5c svgShape"/></linearGradient><path fill="url(#P)" d="m958.389 365.9 2.507-2.507a1.458 1.458 0 0 0-2.061-2.061l-2.507 2.507-2.507-2.507a1.458 1.458 0 0 0-2.061 2.061l2.507 2.507-2.502 2.502a1.458 1.458 0 0 0 2.06 2.061l2.502-2.502 2.502 2.502c.284.285.657.427 1.03.427s.746-.142 1.03-.427a1.458 1.458 0 0 0 0-2.061l-2.5-2.502z"/><linearGradient id="Q" x1="674.898" x2="684.887" y1="121.23" y2="121.23" gradientUnits="userSpaceOnUse"><stop offset=".189" stop-color="#ffb669" class="stopColorffbe69 svgShape"/><stop offset="1" stop-color="#ffb05c" class="stopColorff8f5c svgShape"/></linearGradient><path fill="url(#Q)" d="m681.953 121.232 2.507-2.507a1.458 1.458 0 0 0-2.061-2.061l-2.507 2.507-2.507-2.507a1.458 1.458 0 0 0-2.061 2.061l2.507 2.507-2.502 2.502a1.458 1.458 0 0 0 2.06 2.061l2.502-2.502 2.502 2.502c.284.285.657.427 1.03.427s.746-.142 1.03-.427a1.458 1.458 0 0 0 0-2.061l-2.5-2.502z"/><linearGradient id="R" x1="336.744" x2="346.534" y1="336.953" y2="347.202" gradientUnits="userSpaceOnUse"><stop offset=".189" stop-color="#ffb669" class="stopColorffbe69 svgShape"/><stop offset="1" stop-color="#ffb05c" class="stopColorff8f5c svgShape"/></linearGradient><path fill="url(#R)" d="m343.245 341.606 2.507-2.507a1.458 1.458 0 0 0-2.061-2.061l-2.507 2.507-2.507-2.507a1.458 1.458 0 0 0-2.061 2.061l2.507 2.507-2.502 2.502a1.458 1.458 0 0 0 2.06 2.061l2.502-2.502 2.502 2.502c.284.285.657.427 1.03.427s.746-.142 1.03-.427a1.458 1.458 0 0 0 0-2.061l-2.5-2.502z"/><linearGradient id="S" x1="1003.408" x2="1014.86" y1="629.48" y2="629.48" gradientUnits="userSpaceOnUse"><stop offset="0" stop-color="#3234b3" class="stopColor326ab3 svgShape"/><stop offset="1" stop-color="#000280" class="stopColor003780 svgShape"/></linearGradient><path fill="url(#S)" d="M1009.134 635.206a5.733 5.733 0 0 1-5.726-5.726 5.733 5.733 0 0 1 5.726-5.726 5.733 5.733 0 0 1 5.726 5.726 5.734 5.734 0 0 1-5.726 5.726zm0-9.66a3.939 3.939 0 0 0-3.934 3.934 3.939 3.939 0 0 0 3.934 3.934 3.939 3.939 0 0 0 3.934-3.934 3.939 3.939 0 0 0-3.934-3.934z"/><linearGradient id="T" x1="282.918" x2="294.369" y1="267.441" y2="267.441" gradientUnits="userSpaceOnUse"><stop offset="0" stop-color="#3234b3" class="stopColor326ab3 svgShape"/><stop offset="1" stop-color="#000280" class="stopColor003780 svgShape"/></linearGradient><path fill="url(#T)" d="M288.644 273.167a5.733 5.733 0 0 1-5.726-5.726 5.733 5.733 0 0 1 5.726-5.726 5.733 5.733 0 0 1 5.726 5.726 5.734 5.734 0 0 1-5.726 5.726zm0-9.66a3.939 3.939 0 0 0-3.934 3.934 3.939 3.939 0 0 0 3.934 3.934 3.939 3.939 0 0 0 3.934-3.934 3.939 3.939 0 0 0-3.934-3.934z"/></svg>