<svg xmlns="http://www.w3.org/2000/svg" data-name="Layer 1" viewBox="0 0 2500 2500"><path fill="#e46449" d="M2133.3 1368a83.1 83.1 0 1083.1-83.1 83.1 83.1 0 00-83.1 83.1M1123.7 562.4a40.8 40.8 0 1040.8-40.8 40.8 40.8 0 00-40.8 40.8M297.5 2122.5H2073.8c71.4 0 107.4-113.6 109.3-185s-39.3-142.3-102.4-175.9-147.7-33.4-195.8-87.4c-51-57.4-34.8-148.5 2.1-215.9s91.3-126 113.8-199.5c24.4-79.7 6.4-169.6-40.7-238.5s-120.9-117.3-201-140.6c-71.5-20.9-150.1-22.4-219.5 4.7s-128.2 84.6-148.5 156.3c-12.3 43.5-10.3 89.7-17.3 134.4s-26 91.6-65.8 113c-54.4 29.2-119.7 0-180-13.3C977.5 1241.7 809.5 1327 747.4 1468c-31.8 72.2-37.3 153.1-59.4 228.9s-68.8 152.9-144.8 174.2c-79.5 22.3-166.4-23.1-245.8-.4-49.9 14.3-91.6 58.8-96.5 110.5s45.5 132.2 96.6 141.3" class="colore46449 svgShape"/><path fill="#01184a" d="M1887.4,1840.5h-.2a1.7,1.7,0,0,1-1.5-1.9c16.8-141.5-33.4-251.8-33.9-252.9a1.8,1.8,0,0,1,.8-2.3,1.7,1.7,0,0,1,2.3.9c.5,1.1,51.1,112.2,34.2,254.7a1.6,1.6,0,0,1-1.7,1.5" class="color01184a svgShape"/><path fill="#13417c" d="M1868.6 1835.7h-.3a1.6 1.6 0 01-1.4-1.9c7.7-54.7-5.7-88.3-18.4-107s-29.4-27.5-29.6-27.5a1.8 1.8 0 011.5-3.2c.6.4 16.6 7.8 30.8 28.6 13.1 19.2 27 53.7 19 109.6a1.6 1.6 0 01-1.6 1.5M1999 1840.5a1.7 1.7 0 01-1.7-1.5c-7.3-74.5 23.6-117.3 23.9-117.7a1.7 1.7 0 012.4-.4 1.7 1.7 0 01.4 2.4c-.3.4-30.4 42.3-23.3 115.4a1.7 1.7 0 01-1.5 1.8h-.2" class="color13417c svgShape"/><path fill="#01184a" d="M1964.1,1840.5a1.7,1.7,0,0,1-1.7-1.5c-20.5-214.7,18.3-305.8,18.7-306.7a1.7,1.7,0,0,1,2.3-.9,1.9,1.9,0,0,1,.9,2.3c-.4.8-38.9,91.3-18.5,305a1.7,1.7,0,0,1-1.5,1.8h-.2" class="color01184a svgShape"/><path fill="#13417c" d="M1927.6,1835.7a1.7,1.7,0,0,1-1.7-1.6c-19.3-179.4-9.9-440.8-9.8-443.4a1.7,1.7,0,0,1,1.8-1.6,1.6,1.6,0,0,1,1.6,1.8c-.1,2.6-9.4,263.7,9.8,442.9a1.8,1.8,0,0,1-1.5,1.9h-.2" class="color13417c svgShape"/><path fill="#ffffff" d="M2082.2,1824.9l-4.4,54.7-2.3,28.6-1.7,21.3-2.3,28.6-4,50.3a124,124,0,0,1-123.6,114.1h-5.8a124,124,0,0,1-123.6-114.1l-4-50.3-2.3-28.6-1.7-21.3-2.3-28.6-4.4-54.7Z" class="colorfff svgShape"/><polygon fill="#13417c" points="2077.8 1879.6 2075.5 1908.2 1806.5 1908.2 1804.2 1879.6 2077.8 1879.6" class="color13417c svgShape"/><polygon fill="#13417c" points="2073.8 1929.5 2071.5 1958.1 1810.5 1958.1 1808.2 1929.5 2073.8 1929.5" class="color13417c svgShape"/><path fill="#13417c" d="M1825.3 1697.6s-109.5-125-218.3-67.4c0 0-8.1 82 69.8 112s148.5-44.6 148.5-44.6M2021.8 1725.1s43.4-160.4 166.4-156.5c0 0 43.4 70-13.4 131.3s-153 25.2-153 25.2" class="color13417c svgShape"/><path fill="#01184a" d="M1858.2 1595.3S1818 1336 1626.9 1288.5c0 0-52.4 73.1 0 185.1s165.6 37.7 231.3 121.7M1975.5 1550.3s40.2-259.3 231.4-306.8c0 0 52.3 73 0 185s-165.6 37.8-231.4 121.8" class="color01184a svgShape"/><path fill="#13417c" d="M1914.2 1396.9s-171-312.3 183.2-467.5c0 0 13.4 372.5-183.2 467.5M1848.9 1576.7a1.6 1.6 0 01-1.6-1.1c-.6-1.5-57.3-156.3-180.4-237.8a1.6 1.6 0 01-.5-2.3 1.8 1.8 0 012.4-.5c124 82.1 181.1 237.9 181.7 239.5a1.7 1.7 0 01-1 2.1h-.6" class="color13417c svgShape"/><path fill="#01184a" d="M1813.2,1699.3a1.7,1.7,0,0,1-1-.3c-.7-.5-70.5-49.3-162.3-54.1a1.7,1.7,0,0,1-1.6-1.8,1.8,1.8,0,0,1,1.8-1.6c92.8,4.9,163.3,54.2,164,54.7a1.8,1.8,0,0,1,.5,2.4,1.7,1.7,0,0,1-1.4.7" class="color01184a svgShape"/><path fill="#13417c" d="M1985.3,1528h-.7a1.6,1.6,0,0,1-.9-2.2,893.2,893.2,0,0,1,58.8-111c32.9-52.5,83.6-118.6,138.7-135.1a1.6,1.6,0,0,1,2.1,1.1,1.8,1.8,0,0,1-1.2,2.2c-103.5,31-194.3,242-195.2,244.1a1.7,1.7,0,0,1-1.6,1" class="color13417c svgShape"/><path fill="#01184a" d="M1917.9 1385.2a1.6 1.6 0 01-1.7-1.7c-.1-.6-1.3-65.6 13.7-143.6 13.8-72.1 44.8-170.4 113.5-229.4a1.6 1.6 0 012.4.1 1.7 1.7 0 01-.2 2.4c-68 58.4-98.6 156-112.4 227.6-14.9 77.6-13.6 142.2-13.6 142.8a1.8 1.8 0 01-1.7 1.8zM2029.9 1722.8h-.7a1.6 1.6 0 01-.9-2.2c.4-.9 38.9-90.4 142.4-116.3a1.9 1.9 0 012.1 1.3 1.7 1.7 0 01-1.3 2c-101.8 25.5-139.7 113.4-140.1 114.3a1.5 1.5 0 01-1.5 1M1119.2 2016.7V416.2a66.3 66.3 0 00-66.3-66.2H285.6a66.2 66.2 0 00-66.2 66.2V2016.7a66.2 66.2 0 0066.2 66.2h767.3a66.3 66.3 0 0066.3-66.2" class="color01184a svgShape"/><path fill="#13417c" d="M1145.9,2016.7V416.2a66.2,66.2,0,0,0-66.2-66.2H312.4a66.3,66.3,0,0,0-66.3,66.2V2016.7a66.3,66.3,0,0,0,66.3,66.2h767.3a66.2,66.2,0,0,0,66.2-66.2" class="color13417c svgShape"/><path fill="#bde0fe" d="M1071.7,393.9H320.4A30.4,30.4,0,0,0,290,424.2v1583a31.8,31.8,0,0,0,31.8,31.8h748.5a31.7,31.7,0,0,0,31.7-31.8V424.2a30.3,30.3,0,0,0-30.3-30.3" class="colorbde0fe svgShape"/><polygon fill="#ffffff" points="445.6 440.6 445.6 455.7 460.7 455.7 460.7 475.5 445.6 475.5 445.6 490.6 365.3 490.6 365.3 440.6 445.6 440.6" class="colorfff svgShape"/><rect width="14.6" height="36.96" x="372.3" y="447.1" fill="#e46449" class="colore46449 svgShape"/><rect width="14.6" height="36.96" x="390.8" y="447.1" fill="#e46449" class="colore46449 svgShape"/><rect width="14.6" height="36.96" x="409.4" y="447.1" fill="#e46449" class="colore46449 svgShape"/><rect width="9.4" height="58.93" x="1001.5" y="436.9" fill="#ffffff" class="colorfff svgShape"/><rect width="9.4" height="45.37" x="979.4" y="450.5" fill="#ffffff" class="colorfff svgShape"/><rect width="9.4" height="32.07" x="957.2" y="463.8" fill="#ffffff" class="colorfff svgShape"/><rect width="9.4" height="20.86" x="935" y="475" fill="#ffffff" class="colorfff svgShape"/><rect width="1872" height="42.68" x="253.1" y="2107.3" fill="#000000" class="color000 svgShape"/><path fill="#13417c" d="M1027.1,735.7H365.3V649.1a67.2,67.2,0,0,1,67.2-67.2H959.9a67.2,67.2,0,0,1,67.2,67.2Z" class="color13417c svgShape"/><path fill="#ffffff" d="M531.2,630.2h17.6c2.8,0,5,.6,6.5,1.9a9.1,9.1,0,0,1,3.1,5.3,41.9,41.9,0,0,1,.8,8.8,17.9,17.9,0,0,1-1.3,7.6,7,7,0,0,1-4.4,3.8,5.1,5.1,0,0,1,3.8,2.6,10.8,10.8,0,0,1,1.2,5.6l-.2,21.6H547.1V665q0-2.4-.9-3a5.7,5.7,0,0,0-3.4-.7v26.1H531.2Zm14.4,21.2c1.6,0,2.4-1.8,2.4-5.2a25.6,25.6,0,0,0-.2-3.4,2.7,2.7,0,0,0-.7-1.6,2.5,2.5,0,0,0-1.6-.4h-2.6v10.6Z" class="colorfff svgShape"/><polygon fill="#ffffff" points="563 687.4 563 630.2 585.9 630.2 585.9 641.2 574.7 641.2 574.7 652.4 585.5 652.4 585.5 663.2 574.7 663.2 574.7 676.3 586.7 676.3 586.7 687.4 563 687.4" class="colorfff svgShape"/><path fill="#ffffff" d="M593,683.6q-3-4.4-3-13.2V645.7c0-5.3,1.2-9.3,3.5-12s5.9-4.1,10.6-4.1,6.7.8,8.8,2.3a12,12,0,0,1,4.3,6.6,42.7,42.7,0,0,1,1.2,11.1H607.2v-5.1a7,7,0,0,0-.6-3.2,1.9,1.9,0,0,0-2-1.1q-3.3,0-3.3,4.2v27.8a8.2,8.2,0,0,0,.7,3.9,2.3,2.3,0,0,0,2.3,1.3,2.5,2.5,0,0,0,2.4-1.3,9.9,9.9,0,0,0,.6-3.9V664h-3v-9.9h14v33.3h-4.6l-2-4.8a10.1,10.1,0,0,1-9.4,5.4c-4.2,0-7.3-1.5-9.3-4.4" class="colorfff svgShape"/><rect width="11.1" height="57.26" x="622.3" y="630.2" fill="#ffffff" class="colorfff svgShape"/><path fill="#ffffff" d="M640.2,684.1c-2.3-2.6-3.4-6.7-3.4-12.5V666H648v7.2c0,2.8,1,4.2,2.8,4.2a2.3,2.3,0,0,0,2.1-.9,5.6,5.6,0,0,0,.6-3,12,12,0,0,0-.7-4.6,8.3,8.3,0,0,0-1.7-3.1,38.7,38.7,0,0,0-3.7-3.8l-4.9-5c-3.8-3.7-5.7-7.8-5.7-12.4s1.1-8.6,3.3-11.1,5.6-3.9,9.9-3.9,8.8,1.4,11.1,4.1,3.4,7,3.4,12.9H652.8v-4a2.4,2.4,0,0,0-.7-1.8,2.4,2.4,0,0,0-1.7-.6,2.4,2.4,0,0,0-2,.7,2.7,2.7,0,0,0-.7,2c0,1.9,1.1,3.8,3.2,5.8l6.7,6.4a35.5,35.5,0,0,1,3.8,4.3,15.7,15.7,0,0,1,2.5,4.8,21,21,0,0,1,.9,6.6c0,5.6-1,9.9-3.1,12.8s-5.4,4.4-10.2,4.4-8.9-1.3-11.3-3.9" class="colorfff svgShape"/><polygon fill="#ffffff" points="673.6 687.4 673.6 641.2 666.8 641.2 666.8 630.2 691.8 630.2 691.8 641.2 685 641.2 685 687.4 673.6 687.4" class="colorfff svgShape"/><path fill="#ffffff" d="M695 630.2h17.6c2.8 0 5 .6 6.5 1.9a8.6 8.6 0 013.1 5.3 36.1 36.1 0 01.8 8.8 19.8 19.8 0 01-1.2 7.6 7.3 7.3 0 01-4.4 3.8 4.9 4.9 0 013.7 2.6 10.8 10.8 0 011.2 5.6v21.6H711V665c0-1.6-.3-2.6-1-3s-1.7-.7-3.4-.7v26.1H695zm14.4 21.2c1.6 0 2.4-1.8 2.4-5.2a15.3 15.3 0 00-.2-3.4 2.2 2.2 0 00-.7-1.6 2.2 2.2 0 00-1.5-.4h-2.7v10.6zM725.3 687.4l5.5-57.2h19.4l5.5 57.2H744.8l-.8-9.2h-6.9l-.7 9.2zM738 669h5.2l-2.6-29.1h-.5z" class="colorfff svgShape"/><polygon fill="#ffffff" points="764.1 687.4 764.1 641.2 757.3 641.2 757.3 630.2 782.4 630.2 782.4 641.2 775.6 641.2 775.6 687.4 764.1 687.4" class="colorfff svgShape"/><rect width="11.1" height="57.26" x="785" y="630.2" fill="#ffffff" class="colorfff svgShape"/><path fill="#ffffff" d="M803.8,683.7c-2.4-2.8-3.6-6.8-3.6-11.9V644.6c0-5,1.2-8.7,3.6-11.2s5.9-3.8,10.6-3.8,8.1,1.3,10.5,3.8,3.6,6.2,3.6,11.2v27.2q0,7.8-3.6,12T814.4,688c-4.7,0-8.2-1.4-10.6-4.3m12.6-7.6a9.2,9.2,0,0,0,.6-3.7v-28a8.7,8.7,0,0,0-.5-3.1,2.2,2.2,0,0,0-2.1-1.1c-1.9,0-2.8,1.4-2.8,4.3v27.9a9.4,9.4,0,0,0,.6,3.8,2.2,2.2,0,0,0,2.2,1.2,1.9,1.9,0,0,0,2-1.3" class="colorfff svgShape"/><polygon fill="#ffffff" points="833.1 687.4 833.1 630.2 844.9 630.2 850.2 657.6 850.2 630.2 861.2 630.2 861.2 687.4 850 687.4 844.3 658.8 844.3 687.4 833.1 687.4" class="colorfff svgShape"/><path fill="#ffffff" d="M930.6,1631.1H461.9a96.5,96.5,0,0,1-96.6-96.5V735.7h661.8v798.9a96.5,96.5,0,0,1-96.5,96.5" class="colorfff svgShape"/><rect width="661.8" height="167.1" x="365.3" y="1871" fill="#ffffff" class="colorfff svgShape"/><path fill="#bde0fe" d="M771.4,854.1a75,75,0,0,1-21.2,52.4,67.9,67.9,0,0,1-12.4,10.3,75,75,0,0,1-83.2,0,69.4,69.4,0,0,1-13.1-11.1A74.8,74.8,0,0,1,621,854.1a73.1,73.1,0,0,1,4.4-25.3,75.2,75.2,0,0,1,146,25.3" class="colorbde0fe svgShape"/><path fill="#13417c" d="M717.7 830.4a21.5 21.5 0 10-21.5 21.5 21.5 21.5 0 0021.5-21.5M737.8 898.6v18.2a75 75 0 01-83.2 0V898.6a29.2 29.2 0 0129.2-29.2h24.8a29.2 29.2 0 0129.2 29.2M878.5 1574.3H529.8a35.4 35.4 0 110-70.7H878.5a35.4 35.4 0 110 70.7" class="color13417c svgShape"/><path d="M1585.8 676.7c-6.8-12-16.9-21.5-24.6-32.9s-12.7-26.6-7.7-39.6c2.9-7.4 8.6-13.1 11.1-20.6s1.7-14.1.6-21.2-2.5-14.1-1.8-21.2 3.9-14.4 9.8-17.6c4.2-2.2 9-2.1 13.7-1.9a248 248 0 01107.9 31.8c23.6-3 45.8 11.3 58.4 32.9s14.9 48.9 9.2 73.7-18.5 47-34 66.3c-9.1 11.4-20.6 22.5-34.6 22.9-11.8.2-22.4-7.4-32.1-14.6-24-18.1-60.6-31.1-75.9-58M1274.1 2096.1l4.4 12a8.4 8.4 0 007.7 5.6c19.6.6 86.2 1.9 148.5-3.8a549.2 549.2 0 0057.6-7.9 13.9 13.9 0 0011.2-13.2l1.7-47.5 2.2-61.3s-83.5 6.9-146.9-18.1a244.9 244.9 0 01-.6 26.4 176.5 176.5 0 01-4.5 28.9 118.5 118.5 0 01-5.1 15.6l-4 2.9-22.9 16.7-46.2 33.6a8.9 8.9 0 00-3.1 10.1" fill="#000000" class="color000 svgShape"/><path fill="#ffffff" d="M1360.5,1961.9c63.4,25,146.9,18.1,146.9,18.1l.7-18.1s-81.1,4.3-149-18.6c0,0,1,7.3,1.4,18.6" class="colorfff svgShape"/><path d="M1850.6,2111.9l10.8,6.7a8.4,8.4,0,0,0,9.5-.4c15.8-11.8,68.7-52.2,113.9-95.5a533.3,533.3,0,0,0,40.1-42,14,14,0,0,0,.6-17.4l-28.2-38.1-36.5-49.4s-61,57.4-126.2,77.3a257.8,257.8,0,0,1,16,21,173.9,173.9,0,0,1,14.4,25.5,123.2,123.2,0,0,1,5.8,15.3l-1.3,4.8-7.6,27.3-15.2,55.1a8.7,8.7,0,0,0,3.9,9.8" fill="#000000" class="color000 svgShape"/><path fill="#ffffff" d="M1834.6,1953.1c65.2-19.9,126.2-77.3,126.2-77.3l-10.7-14.6s-60.8,53.8-128.2,78.2c0,0,5.4,5.2,12.7,13.7" class="colorfff svgShape"/><path fill="#01184a" d="M1347.9,1966.8c79.7,33.2,177.8,21.5,177.8,21.5.5-42.5,60.3-373.3,125.8-441S1788.3,1329,1788.3,1329l-132.5-45.3-3.1-1.2-107.6-47c-46.7,61.8-64.4,142.4-91.8,207.8a1146.2,1146.2,0,0,0-45.3,130.2c-40,141.8-60.1,393.3-60.1,393.3" class="color01184a svgShape"/><path fill="#01184a" d="M1613.1,1473.7c22.7-36.2,45.1-67.4,64.2-92.1,31.1-40.2,53.3-63.4,53.7-63.8a1.7,1.7,0,0,0-.1-2.4,1.6,1.6,0,0,0-2.3.1c-.4.4-22.1,23-52.5,62.3l-2.2,2.7c-19,24.6-41.1,55.5-63.6,91.3-35.2,56.1-64.2,113-86.2,169.4-26.9,68.9,34.5-80.7,89-167.5" class="color01184a svgShape"/><path fill="#41294d" d="M1676.6,1382.1l.5-.3a1.7,1.7,0,0,0,.2-2.4c-.4-.5-40.9-50.3-19.4-101.2a1.6,1.6,0,0,0-.9-2.2,1.6,1.6,0,0,0-2.2.9c-22.2,52.7,19.5,104.1,19.9,104.7a2,2,0,0,0,1.9.5" class="color41294d svgShape"/><path fill="#13417c" d="M1820.2,1962.1c79.4-5.6,179.3-94,179.3-94-26.1-33.5-204.4-326.9-195.3-420.6s-43.8-215.8-43.8-215.8l-116.9,6.8-3.2,1-90.7,29.8c2,77.4,15.5,152,34.8,220.2a1132.5,1132.5,0,0,0,45.6,130c56.9,135.9,190.2,342.6,190.2,342.6" class="color13417c svgShape"/><path fill="#333333" d="M1721,1302.6a1.4,1.4,0,0,0,.2-.6,1.7,1.7,0,0,0-1.3-2c-.6-.1-63.3-13.9-78.2-67.1a1.7,1.7,0,1,0-3.2.9c15.4,55.1,80.1,69.4,80.7,69.5a1.8,1.8,0,0,0,1.8-.7" class="color333 svgShape"/><path fill="#fda08e" d="M1283.4,1135.5l167.5-18.2,9.5-.6,8-119.9s83.8-14.7,131.9-41.3c0,0,19,76.4,9.3,146.1-4.5,32.2-15.2,63.1-36.8,84.3-11.5,11.2-29.9,17.5-52.6,20.3-18.1,2.2-38.9,2.1-61.2.5l-208.1-47.5Z" class="colorfda08e svgShape"/><polygon fill="#e97a6f" points="1460.4 1116.7 1491 1115.8 1461.3 1104 1460.4 1116.7" class="colore97a6f svgShape"/><path d="M1685.5,803.5s235.3-7.4,162.2,282.4l-7.6-.5-23.5,20.9L1795.5,1298s-147,38.4-281.9-14.7c0,0-3.8-154.8-7.6-275l-40.9,1.4s0-171.5,146.6-197.5Z" fill="#000000" class="color000 svgShape"/><path fill="#fda08e" d="M1581.2,702.6c1.4,67.4,43.5,63.8,43.5,63.8l-8.2,44.7-7.5,1.6s-9.8,48.5,40.2,43.2,54.3-47.2,54.3-47.2l.3-110c20.2,0,40.5-23.1,11.5-36.3s-33.6,19.2-33.6,19.2c.3-42.6-27.9-60.9-27.9-60.9-39.5,10.8-47.6-22.8-47.6-22.8-23.3,13-25.9,63.8-25,104.7" class="colorfda08e svgShape"/><path d="M1599.5 675.2c0 3.6-2.2 6.6-4.8 6.6s-4.8-3-4.8-6.6 2.1-6.6 4.8-6.6 4.8 2.9 4.8 6.6M1650.6 681.8c0 3.7-2.1 6.6-4.7 6.6s-4.8-2.9-4.8-6.6 2.1-6.6 4.8-6.6 4.7 2.9 4.7 6.6" fill="#000000" class="color000 svgShape"/><path fill="#e97a6f" d="M1624.7 766.4s30.7-.8 51.2-17.1c0 0-10.9 28.6-53.6 30.3zM1693.4 685.7a20.1 20.1 0 0112.1-10.2 2.1 2.1 0 012.5 1.4 1.9 1.9 0 01-1.6 2.2s-.5.2-.1 0l-.3.2-.9.3-1.4.7h-.1a14.6 14.6 0 013.3 3.7 1.8 1.8 0 01-.9 2.5 2.2 2.2 0 01-2.8-.7l-.6-1a11.9 11.9 0 00-2-1.9l-.2-.2-.5.5h0l-.3.3-.5.7a7.1 7.1 0 00-1 1.4l-.4.6-.2.3a1 1 0 00-.1.3 2.1 2.1 0 01-2.6 1.2c-.9-.3-1.9-1.3-1.4-2.4" class="colore97a6f svgShape"/><path d="M1661.5 661.6c-1.3 3.2-8.2 3.4-15.5.5s-12.1-7.9-10.9-11.1 8.3-3.4 15.6-.5 12.1 7.9 10.8 11.1M1606.5 650.1c.5 3.4-5.4 7.1-13.1 8.3s-14.5-.7-15-4.1 5.4-7.1 13.1-8.3 14.5.7 15 4.1" fill="#000000" class="color000 svgShape"/><polygon fill="#e97a6f" points="1615.3 669.8 1604.2 715 1622.1 712.5 1615.3 669.8" class="colore97a6f svgShape"/><path fill="#e97a6f" d="M1649.6,707.2c-5.7,11.6-17.2,20.1-29.9,21.6-1.9.2-3.8,1.5-3.7,3.6a3.8,3.8,0,0,0,4,3.3c15.3-1.9,29.4-11.3,36.3-25.3,2-4.2-4.8-7.1-6.7-3.2" class="colore97a6f svgShape"/><path fill="#fda08e" d="M1546.1,1221.1c34.4,30.3,180.7,81.1,221.4,74.2,70.4-12,81-212.4,81-212.4-65.9-6-106.2-22.6-106.2-22.6l-7.5,144.9-146.6,5.2Z" class="colorfda08e svgShape"/><polygon fill="#e97a6f" points="1734.7 1205.2 1765.3 1204.6 1735.4 1192.5 1734.7 1205.2" class="colore97a6f svgShape"/><polygon points="1742.3 1060.3 1742.3 978.2 1729.1 1205.4 1734.8 1205.2 1742.3 1060.3" fill="#000000" class="color000 svgShape"/><path fill="#e46449" d="M1771.8,1255.6,1088,1087.1a110.4,110.4,0,0,1-80.7-133.6l8.7-35.2a110.3,110.3,0,0,1,133.5-80.8l683.8,168.6a110.3,110.3,0,0,1,80.8,133.5l-8.7,35.3a110.3,110.3,0,0,1-133.6,80.7" class="colore46449 svgShape"/><path fill="#ffffff" d="M1244.8,1053.4c-3.8-7.1-4.1-17-.9-29.8l3.1-12.5,25.2,6.2-4,15.9c-1.5,6.4-.3,10.1,3.8,11.1,2.3.5,4,.3,5.2-.9s2.3-3.2,3.1-6.4a32.7,32.7,0,0,0,1-10.7,22.3,22.3,0,0,0-2.1-7.8,120.2,120.2,0,0,0-6.1-10.6l-8.4-13.8c-6.5-10.5-8.4-20.7-5.9-30.9s7.2-18.6,13.6-23.1,14.5-5.5,24.1-3.2c11.6,2.9,19.1,8,22.7,15.4s3.7,17.5.5,30.5l-26.1-6.4,2-8.8a5.9,5.9,0,0,0-.4-4.4,5.4,5.4,0,0,0-3.6-2.5,5.8,5.8,0,0,0-4.9.6,6.3,6.3,0,0,0-2.5,4.1q-1.7,6.1,3.9,14.7l11.4,18a98.6,98.6,0,0,1,6.3,11.7,38.3,38.3,0,0,1,2.8,12.1,46.3,46.3,0,0,1-1.5,15.2c-3.1,12.6-7.8,21.6-14,27s-14.7,6.8-25.3,4.1-19.3-7.8-23-14.8" class="colorfff svgShape"/><rect width="131.9" height="25.49" x="1267.4" y="1002.5" fill="#ffffff" transform="rotate(-76.2 1332.308 1015.213)" class="colorfff svgShape"/><path fill="#ffffff" d="M1348.1,1077.7c-2.9-7.7-2.7-18.1.5-31.3l13.6-55.2c2.9-11.8,7.8-20.1,14.5-24.8s15.4-5.9,25.8-3.3c8.5,2.1,14.6,5.4,18.5,9.9s5.8,10.2,6,17.1-.9,15.5-3.4,25.6l-25.1-6.2,2.8-11.5a15,15,0,0,0,.5-7.4c-.4-1.9-1.7-3.1-3.9-3.7q-7.4-1.8-9.6,7.8l-15.3,62c-1,3.8-1.2,6.9-.7,9.1a5.4,5.4,0,0,0,4.5,4.3c2.5.6,4.4.1,5.9-1.7s2.7-4.5,3.7-8.4l4.5-18.4-6.8-1.6,5.4-22.1,31.3,7.7-18.4,74.5-10.3-2.5-1.6-11.8c-6.6,6.8-14.6,9.1-24.1,6.7s-15.4-7.2-18.3-14.8" class="colorfff svgShape"/><polygon fill="#ffffff" points="1412.6 1102.6 1444.1 974.6 1470.5 981.1 1467.2 1045.3 1482.3 984 1507 990.1 1475.5 1118.1 1450.4 1112 1453.4 1044.7 1437.6 1108.8 1412.6 1102.6" class="colorfff svgShape"/><path fill="#ffffff" d="M1529.8 1123.3c-3.7-7.2-4.1-16.7-1.2-28.4l23.1-93.8 24.9 6.2-22.8 92.7a32.2 32.2 0 00-1.2 9.8 5.1 5.1 0 004.3 4.7 5 5 0 005.8-2.1 30 30 0 003.6-9.3l22.9-92.8 24.9 6.2-23.2 93.7c-2.8 11.8-7.6 20-14.2 24.7s-15.1 5.7-25.7 3.1-17.6-7.5-21.2-14.7M1623.9 1018.9l33.8 8.3c10.3 2.6 16.8 7.7 19.5 15.4s2.6 17.8-.6 30.6-7.4 21.8-12.9 27.3-13.2 7-23.2 4.6l-10.5-2.6-12.5 50.7-25.2-6.2zm13.3 60.8q4.6 1.2 7.2 0a8.8 8.8 0 004.1-4.2 59.9 59.9 0 002.9-9c1.3-5.4 1.7-9.4 1.1-12.1s-2.7-4.5-6.3-5.3l-2.8-.7-7.7 31z" class="colorfff svgShape"/><path fill="#fda08e" d="M1250.9 1159.2l-46.7-7.5a8.2 8.2 0 01-4.9-2.8l-34.2-41a2.6 2.6 0 012.3-4.2c8.6 1.2 24.7 6.7 38.6 29.4l-17.4-34.2a2.6 2.6 0 013.7-3.3c7.9 5.1 20.3 15.1 27.6 30.9l-14-36a2.5 2.5 0 013.8-3c8 5.4 21 16.6 25.3 33.6l-9.3-33.7a2.5 2.5 0 013.9-2.8c6.6 4.8 17.2 15.2 20.2 35.1 0 0 32-3.1 33.6 15.8zM1546.1 1221.1l-34.6-32a7.9 7.9 0 01-2.6-5.1l-5.8-53a2.5 2.5 0 014.2-2.2c6.5 5.7 16.9 19.2 16 45.8l4.4-38.1a2.6 2.6 0 014.9-.7c3.7 8.6 8.5 23.8 5.8 40.9l8.3-37.6a2.6 2.6 0 014.9-.4c3.6 8.9 8.3 25.4 2.4 42l10.9-33.3a2.5 2.5 0 014.8-.1c2.9 7.6 5.9 22.2-2.6 40.4 0 0 28.4 15.1 19.2 31.7z" class="colorfda08e svgShape"/><rect width="532.3" height="44.36" x="438" y="1028.8" fill="#bde0fe" class="colorbde0fe svgShape"/><rect width="119" height="16.24" x="444.2" y="988.6" fill="#13417c" class="color13417c svgShape"/><rect width="51.1" height="16.24" x="591.9" y="988.6" fill="#13417c" class="color13417c svgShape"/><rect width="532.3" height="44.36" x="438" y="1152.5" fill="#bde0fe" class="colorbde0fe svgShape"/><rect width="119" height="16.24" x="444.2" y="1112.3" fill="#13417c" class="color13417c svgShape"/><rect width="51.1" height="16.24" x="591.9" y="1112.3" fill="#13417c" class="color13417c svgShape"/><rect width="532.3" height="44.36" x="438" y="1276.3" fill="#bde0fe" class="colorbde0fe svgShape"/><rect width="119" height="16.24" x="444.2" y="1236.1" fill="#13417c" class="color13417c svgShape"/><rect width="51.1" height="16.24" x="591.9" y="1236.1" fill="#13417c" class="color13417c svgShape"/><rect width="532.3" height="44.36" x="438" y="1400" fill="#bde0fe" class="colorbde0fe svgShape"/><rect width="119" height="16.24" x="444.2" y="1359.8" fill="#13417c" class="color13417c svgShape"/><rect width="51.1" height="16.24" x="591.9" y="1359.8" fill="#13417c" class="color13417c svgShape"/><rect width="54.5" height="7.65" x="915.8" y="764.4" fill="#13417c" class="color13417c svgShape"/><rect width="54.5" height="7.65" x="915.8" y="778.9" fill="#13417c" class="color13417c svgShape"/><rect width="54.5" height="7.65" x="915.8" y="793.4" fill="#13417c" class="color13417c svgShape"/><rect width="133.3" height="15.02" x="456.2" y="1043.4" fill="#ffffff" class="colorfff svgShape"/><rect width="205.7" height="15.02" x="658.8" y="1043.4" fill="#ffffff" class="colorfff svgShape"/><rect width="44.9" height="15.02" x="601.1" y="1043.4" fill="#ffffff" class="colorfff svgShape"/><rect width="48.7" height="15.02" x="456.2" y="1167.2" fill="#ffffff" class="colorfff svgShape"/><rect width="149.5" height="15.02" x="633.9" y="1167.2" fill="#ffffff" class="colorfff svgShape"/><rect width="95.8" height="15.02" x="522.8" y="1167.2" fill="#ffffff" class="colorfff svgShape"/><rect width="117.5" height="15.02" x="456.2" y="1291" fill="#ffffff" class="colorfff svgShape"/><rect width="34.6" height="15.02" x="748.9" y="1291" fill="#ffffff" class="colorfff svgShape"/><rect width="143.3" height="15.02" x="589" y="1291" fill="#ffffff" class="colorfff svgShape"/><rect width="48.7" height="15.02" x="456.2" y="1414.7" fill="#ffffff" class="colorfff svgShape"/><rect width="139" height="15.02" x="716.1" y="1414.7" fill="#ffffff" class="colorfff svgShape"/><rect width="178.5" height="15.02" x="522.8" y="1414.7" fill="#ffffff" class="colorfff svgShape"/><path fill="#13417c" d="M1027.1,1789.8V1871H365.3v-81.2a63.1,63.1,0,0,1,63.1-63.1H964a63,63,0,0,1,63.1,63.1" class="color13417c svgShape"/><rect width="213.1" height="23.09" x="473.1" y="1804.3" fill="#ffffff" class="colorfff svgShape"/><rect width="69.1" height="23.09" x="710.1" y="1804.3" fill="#ffffff" class="colorfff svgShape"/><rect width="122.6" height="23.09" x="796.7" y="1804.3" fill="#ffffff" class="colorfff svgShape"/><rect width="103.2" height="21" x="449" y="1932.1" fill="#bde0fe" class="colorbde0fe svgShape"/><rect width="97.6" height="21" x="845.8" y="1932.1" fill="#bde0fe" class="colorbde0fe svgShape"/><rect width="253.1" height="21" x="573.7" y="1932.1" fill="#bde0fe" class="colorbde0fe svgShape"/><rect width="191.3" height="21" x="752.2" y="1996.2" fill="#bde0fe" class="colorbde0fe svgShape"/><rect width="280.5" height="21" x="449" y="1996.2" fill="#bde0fe" class="colorbde0fe svgShape"/></svg>